<svg id="Layer_1" data-name="Layer 1" xmlns="http://www.w3.org/2000/svg" xmlns:xlink="http://www.w3.org/1999/xlink" viewBox="0 0 256 256"><defs><style>.cls-1{fill:#fff;}.cls-2{fill:#231f20;}.cls-3{fill:#f7941d;}.cls-4{fill:url(#Orange_Yellow);}.cls-5{fill:url(#Orange_Yellow-2);}</style><linearGradient id="Orange_Yellow" x1="86.82" y1="208.16" x2="86.82" y2="48.94" gradientUnits="userSpaceOnUse"><stop offset="0" stop-color="#fff33b"/><stop offset="0.04" stop-color="#fee72e"/><stop offset="0.12" stop-color="#fed51b"/><stop offset="0.2" stop-color="#fdca10"/><stop offset="0.28" stop-color="#fdc70c"/><stop offset="0.67" stop-color="#f3903f"/><stop offset="0.89" stop-color="#ed683c"/><stop offset="1" stop-color="#e93e3a"/></linearGradient><linearGradient id="Orange_Yellow-2" x1="168.2" y1="206.11" x2="168.2" y2="50.99" xlink:href="#Orange_Yellow"/></defs><rect class="cls-1" y="0.99" width="256" height="256"/><path class="cls-2" d="M42.56,208.54c-1.7-42.3-2.06-78.68-2.06-101.75,0-28,.46-45.18.46-45.35l.14-5.19,4.45-2.68c14.56-8.79,32.8-12,33.57-12.16l11.79-2-.68,11.74a146.36,146.36,0,0,1,30.61-11.39l11.83-2.92-.53,85.77c-.11,12.08.24,24,.56,34.49s.58,19.36.35,26.36l-.21,6-5.55,2.37a213,213,0,0,1-29.51,9.84L86.06,204.5v-1.16c-13,10.85-30.54,13.88-32.54,14.19L43,219.2Z"/><path class="cls-2" d="M147.34,206.73c-1.79-27.26-2.55-71.63-2.86-100.42-3.17,1.09-6.23,2.24-8.75,3.41L124.25,115l-1.88-12.51a151.59,151.59,0,0,1-1.47-19.86A64.26,64.26,0,0,1,122,69.5l1-4.94,4.69-1.88c.41-.16,41.26-16.45,76.32-21.1l9.75-1.29.94,9.79c0,.05.73,7.41.73,15.94a76.2,76.2,0,0,1-1.37,16.41l-1.31,5.91-5.92,1.3c-.94.21-6.48,1.44-14.18,3.24V99.5c0,69.84,4.58,95.73,4.62,96l1.22,6.5-5.69,3.39c-8.09,4.8-28.29,8.91-34.28,10.05l-10.55,2Z"/><path class="cls-3" d="M48.88,208.28c-1.7-42.17-2.05-78.47-2.05-101.49,0-27.73.45-45,.45-45.18l0-1.73L48.81,59C62.37,50.8,79.48,47.77,80.2,47.64L84.13,47l-.23,4c-.85,14.65-1.31,34.6-1.72,54.36,2.82-1.07,6.15-2.25,9.72-3.35-.23-18.49-.66-34.76-1.11-41.88l-.12-2,1.77-1a137.5,137.5,0,0,1,29.91-11.22l4-1-.48,77.64c-.12,12.17.24,24.15.56,34.72.3,10.29.57,19.17.34,26l-.06,2-1.86.79a205.43,205.43,0,0,1-28.51,9.51l-3.91.94v-4c0-.27,0-25.88-.2-54.65-3.25.93-6.78,2.07-10.32,3.34,0,3.51,0,7.09.22,10.6,0,25.45,1.79,43.17,1.81,43.35l.16,1.62-1.22,1.08c-11.94,10.5-29.55,13.39-30.3,13.5l-3.51.56Z"/><path class="cls-3" d="M153.65,206.31c-1.94-29.55-2.66-79.1-2.93-108.68A154.92,154.92,0,0,0,133.08,104l-3.83,1.77-.63-4.17a145.29,145.29,0,0,1-1.4-18.92,58.52,58.52,0,0,1,1-11.82l.36-1.65,1.56-.63c.4-.16,40.4-16.14,74.79-20.7l3.25-.43.32,3.26c0,.3.69,7.31.69,15.34a71,71,0,0,1-1.21,15l-.44,2-2,.43c-.09,0-8.23,1.81-19.16,4.42V99.5c0,71.13,4.69,96.89,4.73,97.14l.41,2.17-1.9,1.13c-7.55,4.49-29.73,8.8-32.23,9.28l-3.51.66Z"/><path class="cls-4" d="M95.55,192.44s0-28-.23-58.77a165.33,165.33,0,0,0-16.63,5.24c0,4.33,0,8.66.23,13,0,25.73,1.82,43.5,1.82,43.5-11.39,10-28.7,12.76-28.7,12.76-1.59-39.64-2-75.17-2-101.37,0-28,.46-45.1.46-45.1,13.21-8,30.29-10.93,30.29-10.93-.91,15.72-1.37,37.36-1.82,59.22a167.06,167.06,0,0,1,16.17-5.69c-.23-19.82-.68-37.13-1.14-44.42a135.18,135.18,0,0,1,29.16-10.93s-.23,36.67-.46,73.57c-.23,23.92,1.37,46.92.91,60.59A205.92,205.92,0,0,1,95.55,192.44Z"/><path class="cls-5" d="M183.23,99.5c0,72.44,4.79,97.72,4.79,97.72-7.29,4.33-31.21,8.89-31.21,8.89-2.05-31.21-2.73-84.74-3-112.75-8.2,2.5-16.18,5-22.1,7.74a142.63,142.63,0,0,1-1.36-18.45,56.29,56.29,0,0,1,.91-11.16s39.63-15.95,74-20.5c0,0,.68,7.06.68,15a70.59,70.59,0,0,1-1.14,14.35s-9.34,2-21.64,5Z"/></svg>