<svg width="300" height="50" viewBox="0 0 300 50" fill="none" xmlns="http://www.w3.org/2000/svg">
<path fill-rule="evenodd" clip-rule="evenodd" d="M29.74 18.9195C29.8903 18.6235 29.9822 18.2928 30.0012 17.9423C30.2511 13.3624 31.1603 9.94716 31.1603 9.94716C31.3269 9.32626 31.2436 8.66479 30.9286 8.10444L30.5302 7.39624C30.1896 6.79102 29.609 6.35792 28.9319 6.20393C28.9319 6.20393 23.763 5.0362 19.5344 5.0362C13.7336 5.0362 9.21209 6.75843 6.1082 9.79224C2.98371 12.8463 1.22951 17.2827 1.22951 22.9428C1.22951 28.0796 2.77285 32.1545 5.44426 34.9747C8.15994 37.841 12.0793 39.4772 17.0115 39.4772C24.3101 39.4772 28.5083 37.6434 28.5083 37.6434C28.9245 37.4663 29.2841 37.178 29.5469 36.8098L29.9895 36.1901C30.4143 35.5953 30.5527 34.8419 30.3667 34.135C30.1817 33.4329 30.1377 32.3955 30.1377 30.9542C30.1377 28.9867 30.1641 27.6432 30.3151 26.6774C30.4107 26.0657 30.568 25.7854 30.9799 25.5382C31.8489 25.0169 32.309 24.0161 32.139 23.0171L31.7849 20.9368C31.6039 19.8742 30.7626 19.0784 29.74 18.9195ZM19.7711 15.1443C19.5114 15.0973 18.9154 15.0001 18.4279 15.0001C17.3007 15.0001 16.3998 15.1566 15.7577 15.7099C14.5992 16.7079 14.3361 18.5906 14.3361 21.3936C14.3361 23.8449 14.5998 25.8115 15.1857 27.2823C15.7684 28.7451 16.7161 29.5575 18.118 29.5575C18.485 29.5575 18.8213 29.5145 19.1115 29.4542V28.0228C18.529 28.0348 17.9914 28.0557 17.9914 28.0557C17.1175 28.0895 16.2916 27.6564 15.8222 26.9187L15.5124 26.4318C15.1949 25.9329 15.0679 25.3363 15.1543 24.7514L15.6854 21.1661C15.8643 19.9603 16.8993 19.0673 18.118 19.0673C18.6314 19.0673 19.2467 19.0723 19.9266 19.0787C19.7723 18.7157 19.7062 18.3161 19.7398 17.9141C19.7398 17.9141 19.8197 16.9409 19.8197 15.6837C19.8197 15.5104 19.7923 15.2881 19.7711 15.1443Z" fill="#231F20"/>
<path fill-rule="evenodd" clip-rule="evenodd" d="M31.3279 10.6575V10.6821V30.6001C31.3279 30.8067 31.3165 31.0437 31.3042 31.2358L31.2799 31.2407C30.237 31.4442 29.4427 32.2947 29.3109 33.3493L28.9125 36.5362C28.82 37.2767 29.0686 38.019 29.5884 38.5541C30.1082 39.0896 30.8428 39.3598 31.5858 39.2891C33.3624 39.12 35.3929 38.9903 36.6197 38.9903C38.0942 38.9903 40.306 39.0779 42.1709 39.1646C43.4216 39.223 44.5165 38.3319 44.7135 37.0956L45.2004 34.0415C45.2812 33.534 45.2013 33.014 44.9717 32.5544L44.8389 32.2889C44.4101 31.4319 43.5227 30.9017 42.565 30.9309L42.4872 30.933C42.5001 17.0242 42.8625 7.97349 43.7877 5.53446C43.9967 4.98364 44.001 4.37595 43.7994 3.82206L43.4453 2.84829C43.0399 1.73282 41.8955 1.06643 40.725 1.26407C37.3475 1.83425 33.9264 2.31653 30.549 2.75516C29.4267 2.90085 28.5492 3.79347 28.4222 4.91786L28.1124 7.66212C28.0371 8.32852 28.2372 8.99675 28.6666 9.51223L28.8879 9.7778C29.3733 10.36 30.0999 10.6861 30.8576 10.6612C31.0088 10.6563 31.1711 10.6557 31.3279 10.6575Z" fill="#231F20"/>
<path fill-rule="evenodd" clip-rule="evenodd" d="M54.059 39.5214C58.1333 39.5214 61.4511 38.0924 63.7734 35.6546C66.0572 33.2574 67.4066 29.8363 67.4066 25.6428C67.4066 21.677 66.2173 18.5571 64.18 16.3975C62.0972 14.1896 59.0868 12.9149 55.2541 12.9149C51.2072 12.9149 47.8878 14.3414 45.5588 16.7792C43.2679 19.1768 41.9066 22.5994 41.9066 26.7936C41.9066 30.6561 43.1456 33.7864 45.2195 35.9762C47.3395 38.2142 50.3613 39.5214 54.059 39.5214ZM54.8115 30.6641C54.4104 30.6641 54.3913 30.2178 54.2327 29.6685C53.9087 28.5469 53.7738 27.0026 53.7738 24.9788C53.7738 24.1252 53.8291 23.417 53.9696 22.8459C54.0492 22.521 54.091 22.2592 54.3689 22.2592C54.7678 22.2592 54.7921 22.7012 54.9498 23.2421C55.2725 24.3487 55.4066 25.8696 55.4066 27.8559C55.4066 28.7448 55.3528 29.4791 55.2138 30.0702C55.1358 30.4019 55.0964 30.6641 54.8115 30.6641Z" fill="#231F20"/>
<path fill-rule="evenodd" clip-rule="evenodd" d="M67.7096 22.3726C67.7109 22.4162 67.7115 22.4589 67.7115 22.5001V30.8214C67.7115 30.8995 67.7078 30.9865 67.7023 31.0716C66.5582 31.1697 65.633 32.0479 65.4768 33.1876L65.0342 36.4188C64.934 37.1516 65.1685 37.8902 65.673 38.4306C66.1777 38.9712 66.8985 39.2559 67.6362 39.2061C67.6362 39.2061 70.8215 38.9903 73.4902 38.9903C75.7008 38.9903 79.7321 39.2082 79.7321 39.2082C80.9942 39.2759 82.1022 38.3759 82.2944 37.1267L82.8255 33.6742C82.91 33.1246 82.8058 32.5627 82.5301 32.0802L82.3531 31.7703C81.8622 30.9112 80.9044 30.4302 79.922 30.5491C79.922 30.5491 79.3927 30.6152 78.8093 30.6619C78.845 29.8981 78.9111 28.6769 78.9802 27.4449C79.4444 27.7873 80.017 27.9573 80.5986 27.9195L84.0068 27.6982C85.2489 27.6177 86.2346 26.6221 86.3029 25.3793C86.5183 21.4584 87.252 16.6756 87.252 16.6756C87.3234 16.2106 87.2594 15.7348 87.0685 15.3047L86.8915 14.9064C86.5746 14.1939 85.9389 13.6738 85.1779 13.5047C85.1779 13.5047 84.1143 13.269 83.0508 13.269C81.7251 13.269 80.369 13.6418 79.0463 14.4075C78.9427 14.2594 78.8222 14.1213 78.6851 13.9972L78.1983 13.5545C77.6278 13.0354 76.8464 12.8147 76.0884 12.9576C76.0884 12.9576 71.4418 13.8343 67.1023 14.4917C66.0043 14.6583 65.1541 15.5396 65.0275 16.6428L64.7176 19.3428C64.6482 19.9477 64.8058 20.5569 65.1596 21.0524L65.3809 21.3622C65.8887 22.0729 66.7349 22.4608 67.6045 22.3818C67.6045 22.3818 67.646 22.3778 67.7096 22.3726Z" fill="#231F20"/>
<path fill-rule="evenodd" clip-rule="evenodd" d="M88.5492 14.1207C87.6916 14.2498 86.8073 14.3737 85.9328 14.4831C84.7952 14.6251 83.9069 15.5344 83.7913 16.675L83.4815 19.7291C83.4 20.5326 83.7181 21.325 84.3332 21.8491C84.9264 22.3544 85.7225 22.5478 86.4787 22.3738V30.9985C86.4787 31.052 86.4732 31.1196 86.4667 31.1786C86.3628 31.2075 86.2162 31.2447 86.1022 31.2595C84.9965 31.4012 84.1248 32.2689 83.9773 33.3736L83.5346 36.6933C83.4332 37.4549 83.6936 38.2203 84.2385 38.7619C84.7832 39.3038 85.5501 39.5596 86.3112 39.4538C86.3112 39.4538 89.605 38.9903 91.8148 38.9903C93.7168 38.9903 97.0887 39.1643 97.0887 39.1643C98.3643 39.2294 99.4777 38.3076 99.651 37.0421L100.094 33.811C100.161 33.3201 100.078 32.8206 99.857 32.3774L99.7685 32.2003C99.3523 31.3683 98.5079 30.8506 97.595 30.8414C97.6104 26.334 97.7462 22.6108 97.9844 20.054C98.1043 18.7667 98.3871 17.3915 98.4083 17.2898C98.7652 16.5561 98.735 15.6914 98.325 14.9829L97.8381 14.1419C97.4846 13.5318 96.8975 13.1175 96.2382 12.9724C97.3205 11.8563 97.9918 10.2871 97.9918 8.38046C97.9918 6.55126 97.3832 5.07924 96.3861 4.03661C95.3665 2.97002 93.9003 2.29194 91.9918 2.29194C90.0538 2.29194 88.4791 2.9946 87.3664 4.13405C86.2724 5.25474 85.5934 6.83774 85.5934 8.77882C85.5934 10.6225 86.1984 12.084 87.2032 13.1165C87.5856 13.5094 88.0334 13.8496 88.5492 14.1207Z" fill="#231F20"/>
<path fill-rule="evenodd" clip-rule="evenodd" d="M109.387 39.5214C113.461 39.5214 116.779 38.0924 119.101 35.6546C121.385 33.2574 122.734 29.8363 122.734 25.6428C122.734 21.677 121.545 18.5571 119.508 16.3975C117.425 14.1896 114.415 12.9149 110.582 12.9149C106.535 12.9149 103.216 14.3414 100.887 16.7792C98.5958 19.1768 97.2344 22.5994 97.2344 26.7936C97.2344 30.6561 98.4735 33.7864 100.547 35.9762C102.667 38.2142 105.689 39.5214 109.387 39.5214ZM110.139 30.6641C109.738 30.6641 109.719 30.2178 109.561 29.6685C109.237 28.5469 109.102 27.0026 109.102 24.9788C109.102 24.1252 109.157 23.417 109.297 22.8459C109.377 22.521 109.419 22.2592 109.697 22.2592C110.096 22.2592 110.12 22.7012 110.278 23.2421C110.6 24.3487 110.734 25.8696 110.734 27.8559C110.734 28.7448 110.681 29.4791 110.542 30.0702C110.464 30.4019 110.424 30.6641 110.139 30.6641Z" fill="#231F20"/>
<path fill-rule="evenodd" clip-rule="evenodd" d="M122.09 22.3916L121.801 31.1832C121.801 31.2103 121.8 31.2373 121.8 31.2641C121.8 33.4182 122.451 35.1631 123.612 36.5049C125.189 38.3276 127.854 39.4772 131.651 39.4772C132.12 39.4772 132.902 39.3143 133.819 38.7223C134.281 38.4238 134.86 37.9741 135.517 37.4027C135.584 37.4762 135.653 37.5478 135.724 37.6176C136.912 38.7905 138.709 39.5214 141.211 39.5214C141.458 39.5214 141.702 39.4846 141.938 39.4117C143.266 39.0014 144.663 37.9357 145.802 36.7215C147.227 35.2019 148.259 33.5331 148.259 33.5331C148.776 32.6995 148.747 31.6388 148.187 30.8337L147.479 29.8157C146.836 28.8914 145.67 28.5416 144.651 28.8976C144.689 25.589 144.877 22.5001 145.161 20.2298C145.325 18.9177 145.443 17.9417 145.669 17.5302C146.099 16.746 146.07 15.7907 145.592 15.0346L145.061 14.1936C144.528 13.3501 143.539 12.9121 142.556 13.0849C142.556 13.0849 137.837 13.9154 133.73 14.4398C133.675 14.4465 133.621 14.4555 133.568 14.4659L133.381 14.1419C132.854 13.2318 131.806 12.7575 130.774 12.9619C130.774 12.9619 126.159 13.8764 122.022 14.4426C120.897 14.5965 120.024 15.5009 119.909 16.6308L119.599 19.6849C119.523 20.4373 119.797 21.183 120.343 21.7068C120.815 22.1599 121.444 22.4033 122.09 22.3916ZM133.197 22.3148C133.071 24.1634 133.003 26.2956 133.003 28.387C133.003 28.6357 133.048 28.9409 133.084 29.1484C133.233 29.1278 133.381 29.0777 133.529 29.0088V22.3468C133.417 22.3437 133.306 22.3329 133.197 22.3148Z" fill="#231F20"/>
<path fill-rule="evenodd" clip-rule="evenodd" d="M146.48 27.2104C145.7 27.5648 145.139 28.3129 145.05 29.2046C144.878 30.93 144.621 33.4747 144.405 34.8118C144.306 35.4244 144.443 36.0515 144.787 36.5675L145.141 37.0987C145.369 37.4402 145.678 37.7193 146.042 37.9105C146.042 37.9105 149.023 39.5214 153.428 39.5214C160.528 39.5214 165.448 35.3288 165.448 30.2903C165.448 28.1061 164.955 26.4017 163.071 24.7222C163.672 24.3204 164.086 23.6605 164.154 22.8967C164.408 20.0599 164.959 17.2655 164.959 17.2655C165.069 16.7064 164.981 16.1264 164.711 15.6244L164.401 15.049C164.126 14.5388 163.68 14.1419 163.141 13.9286C163.141 13.9286 160.651 12.9149 157.013 12.9149C149.599 12.9149 144.905 16.9938 144.905 22.4116C144.905 24.2245 145.379 25.8137 146.48 27.2104Z" fill="#231F20"/>
<path fill-rule="evenodd" clip-rule="evenodd" d="M28.5104 17.69C28.6608 17.394 28.7527 17.0632 28.7717 16.7128C29.0216 12.1329 29.9308 8.71765 29.9308 8.71765C30.0974 8.09675 30.0141 7.43528 29.6991 6.87493L29.3007 6.16673C28.9601 5.56151 28.3795 5.12841 27.7024 4.97442C27.7024 4.97442 22.5335 3.80669 18.3049 3.80669C12.5041 3.80669 7.98258 5.52892 4.87869 8.56273C1.7542 11.6168 0 16.0532 0 21.7132C0 26.8501 1.54334 30.925 4.21476 33.7452C6.93043 36.6115 10.8498 38.2477 15.782 38.2477C23.0806 38.2477 27.2788 36.4138 27.2788 36.4138C27.695 36.2368 28.0546 35.9485 28.3174 35.5802L28.76 34.9606C29.1848 34.3658 29.3232 33.6124 29.1372 32.9054C28.9522 32.2034 28.9082 31.166 28.9082 29.7247C28.9082 27.7572 28.9346 26.4136 29.0856 25.4479C29.1811 24.8362 29.3385 24.5559 29.7504 24.3087C30.6194 23.7874 31.0795 22.7866 30.9095 21.7876L30.5554 19.7073C30.3744 18.6447 29.5331 17.8489 28.5104 17.69ZM18.5416 13.9148C18.2819 13.8678 17.6859 13.7706 17.1984 13.7706C16.0712 13.7706 15.1703 13.9271 14.5282 14.4804C13.3697 15.4784 13.1066 17.3611 13.1066 20.1641C13.1066 22.6154 13.3703 24.582 13.9561 26.0528C14.5389 27.5156 15.4866 28.328 16.8885 28.328C17.2555 28.328 17.5918 28.285 17.882 28.2247V26.7933C17.2995 26.8053 16.7619 26.8261 16.7619 26.8261C15.888 26.86 15.0621 26.4269 14.5927 25.6892L14.2829 25.2023C13.9654 24.7034 13.8384 24.1068 13.9248 23.5218L14.4559 19.9366C14.6348 18.7308 15.6698 17.8378 16.8885 17.8378C17.4018 17.8378 18.0172 17.8428 18.6971 17.8492C18.5428 17.4862 18.4767 17.0866 18.5102 16.6846C18.5102 16.6846 18.5902 15.7114 18.5902 14.4542C18.5902 14.2809 18.5628 14.0586 18.5416 13.9148Z" fill="#26A9E2"/>
<path fill-rule="evenodd" clip-rule="evenodd" d="M30.0984 9.428V9.45259V29.3706C30.0984 29.5772 30.087 29.8142 30.0747 30.0063L30.0504 30.0112C29.0075 30.2147 28.2132 31.0652 28.0814 32.1198L27.683 35.3067C27.5905 36.0472 27.8391 36.7895 28.3589 37.3246C28.8787 37.8601 29.6133 38.1303 30.3562 38.0596C32.1329 37.8905 34.1634 37.7608 35.3902 37.7608C36.8647 37.7608 39.0765 37.8484 40.9414 37.9351C42.1921 37.9935 43.287 37.1024 43.484 35.8661L43.9709 32.812C44.0517 32.3045 43.9718 31.7845 43.7422 31.3249L43.6094 31.0594C43.1806 30.2024 42.2932 29.6722 41.3354 29.7014L41.2577 29.7035C41.2706 15.7947 41.633 6.74398 42.5582 4.30494C42.7672 3.75412 42.7715 3.14644 42.5699 2.59254L42.2158 1.61877C41.8103 0.503303 40.666 -0.163088 39.4955 0.0345553C36.118 0.60474 32.6969 1.08701 29.3195 1.52564C28.1972 1.67134 27.3197 2.56396 27.1927 3.68834L26.8829 6.43261C26.8076 7.099 27.0077 7.76724 27.4371 8.28271L27.6584 8.54829C28.1437 9.13046 28.8704 9.45658 29.6281 9.43169C29.7793 9.42677 29.9416 9.42615 30.0984 9.428Z" fill="#26A9E2"/>
<path fill-rule="evenodd" clip-rule="evenodd" d="M52.8295 38.2919C56.9038 38.2919 60.2216 36.8629 62.5438 34.4251C64.8277 32.0279 66.177 28.6068 66.177 24.4132C66.177 20.4475 64.9878 17.3276 62.9505 15.168C60.8677 12.9601 57.8573 11.6854 54.0246 11.6854C49.9777 11.6854 46.6583 13.1119 44.3293 15.5497C42.0384 17.9473 40.677 21.3699 40.677 25.5641C40.677 29.4266 41.9161 32.5569 43.99 34.7467C46.1099 36.9847 49.1318 38.2919 52.8295 38.2919ZM53.582 29.4346C53.1808 29.4346 53.1618 28.9883 53.0032 28.439C52.6792 27.3173 52.5443 25.7731 52.5443 23.7493C52.5443 22.8957 52.5996 22.1875 52.7401 21.6164C52.8197 21.2915 52.8615 21.0296 53.1393 21.0296C53.5383 21.0296 53.5626 21.4716 53.7203 22.0126C54.043 23.1192 54.177 24.6401 54.177 26.6264C54.177 27.5153 54.1233 28.2496 53.9843 28.8407C53.9062 29.1724 53.8669 29.4346 53.582 29.4346Z" fill="#26A9E2"/>
<path fill-rule="evenodd" clip-rule="evenodd" d="M66.4801 21.1431C66.4814 21.1867 66.482 21.2294 66.482 21.2706V29.5919C66.482 29.67 66.4783 29.757 66.4727 29.8421C65.3287 29.9402 64.4035 30.8184 64.2473 31.9581L63.8047 35.1893C63.7045 35.9221 63.939 36.6607 64.4434 37.2011C64.9482 37.7417 65.669 38.0264 66.4067 37.9766C66.4067 37.9766 69.592 37.7608 72.2607 37.7608C74.4713 37.7608 78.5026 37.9787 78.5026 37.9787C79.7646 38.0463 80.8727 37.1463 81.0648 35.8972L81.596 32.4447C81.6805 31.8951 81.5763 31.3332 81.3006 30.8506L81.1236 30.5408C80.6327 29.6817 79.6749 29.2007 78.6925 29.3196C78.6925 29.3196 78.1632 29.3857 77.5798 29.4324C77.6155 28.6686 77.6816 27.4474 77.7507 26.2154C78.2149 26.5578 78.7875 26.7278 79.3691 26.69L82.7773 26.4687C84.0194 26.3882 85.0051 25.3926 85.0734 24.1498C85.2888 20.2289 86.0225 15.4461 86.0225 15.4461C86.0939 14.9811 86.0299 14.5053 85.839 14.0752L85.662 13.6769C85.3451 12.9644 84.7094 12.4443 83.9484 12.2752C83.9484 12.2752 82.8848 12.0395 81.8213 12.0395C80.4956 12.0395 79.1394 12.4123 77.8168 13.178C77.7132 13.0298 77.5927 12.8918 77.4556 12.7677L76.9687 12.325C76.3983 11.8059 75.6169 11.5852 74.8589 11.7281C74.8589 11.7281 70.2123 12.6047 65.8727 13.2622C64.7748 13.4288 63.9246 14.3101 63.7979 15.4133L63.4881 18.1132C63.4186 18.7182 63.5763 19.3274 63.9301 19.8229L64.1514 20.1327C64.6592 20.8434 65.5054 21.2313 66.375 21.1523C66.375 21.1523 66.4165 21.1483 66.4801 21.1431Z" fill="#26A9E2"/>
<path fill-rule="evenodd" clip-rule="evenodd" d="M87.3197 12.8912C86.4621 13.0203 85.5778 13.1442 84.7033 13.2536C83.5657 13.3956 82.6774 14.3048 82.5618 15.4455L82.2519 18.4996C82.1705 19.3031 82.4886 20.0955 83.1037 20.6196C83.6969 21.1249 84.493 21.3183 85.2492 21.1443V29.769C85.2492 29.8225 85.2436 29.8901 85.2372 29.9491C85.1333 29.978 84.9867 30.0152 84.8726 30.0299C83.767 30.1716 82.8953 31.0394 82.7477 32.1441L82.3051 35.4638C82.2037 36.2254 82.464 36.9908 83.009 37.5324C83.5537 38.0743 84.3206 38.33 85.0817 38.2243C85.0817 38.2243 88.3755 37.7608 90.5852 37.7608C92.4873 37.7608 95.8592 37.9348 95.8592 37.9348C97.1348 37.9999 98.2481 37.0781 98.4215 35.8126L98.8641 32.5815C98.9314 32.0906 98.8488 31.5911 98.6275 31.1479L98.5389 30.9708C98.1227 30.1388 97.2784 29.6211 96.3655 29.6119C96.3808 25.1045 96.5167 21.3813 96.7549 18.8245C96.8748 17.5372 97.1576 16.162 97.1788 16.0603C97.5356 15.3266 97.5055 14.4619 97.0955 13.7534L96.6086 12.9124C96.2551 12.3023 95.668 11.8879 95.0087 11.7429C96.091 10.6268 96.7623 9.05761 96.7623 7.15095C96.7623 5.32175 96.1537 3.84973 95.1565 2.80711C94.137 1.74051 92.6708 1.06243 90.7623 1.06243C88.8243 1.06243 87.2496 1.76509 86.1369 2.90454C85.0429 4.02524 84.3639 5.60823 84.3639 7.54932C84.3639 9.39296 84.9688 10.8545 85.9737 11.887C86.356 12.2798 86.8039 12.6201 87.3197 12.8912Z" fill="#26A9E2"/>
<path fill-rule="evenodd" clip-rule="evenodd" d="M108.157 38.2919C112.232 38.2919 115.549 36.8629 117.872 34.4251C120.156 32.0279 121.505 28.6068 121.505 24.4132C121.505 20.4475 120.316 17.3276 118.278 15.168C116.196 12.9601 113.185 11.6854 109.352 11.6854C105.306 11.6854 101.986 13.1119 99.6572 15.5497C97.3663 17.9473 96.0049 21.3699 96.0049 25.5641C96.0049 29.4266 97.244 32.5569 99.3178 34.7467C101.438 36.9847 104.46 38.2919 108.157 38.2919ZM108.91 29.4346C108.509 29.4346 108.49 28.9883 108.331 28.439C108.007 27.3173 107.872 25.7731 107.872 23.7493C107.872 22.8957 107.927 22.1875 108.068 21.6164C108.148 21.2915 108.189 21.0296 108.467 21.0296C108.866 21.0296 108.89 21.4716 109.048 22.0126C109.371 23.1192 109.505 24.6401 109.505 26.6264C109.505 27.5153 109.451 28.2496 109.312 28.8407C109.234 29.1724 109.195 29.4346 108.91 29.4346Z" fill="#26A9E2"/>
<path fill-rule="evenodd" clip-rule="evenodd" d="M120.861 21.1621L120.572 29.9537C120.571 29.9808 120.571 30.0078 120.571 30.0346C120.571 32.1887 121.222 33.9336 122.382 35.2753C123.96 37.0981 126.624 38.2477 130.421 38.2477C130.89 38.2477 131.672 38.0848 132.59 37.4928C133.052 37.1943 133.631 36.7446 134.287 36.1732C134.355 36.2466 134.423 36.3183 134.494 36.388C135.683 37.561 137.48 38.2919 139.982 38.2919C140.228 38.2919 140.473 38.2551 140.708 38.1822C142.036 37.7719 143.433 36.7062 144.572 35.492C145.997 33.9724 147.03 32.3036 147.03 32.3036C147.546 31.47 147.518 30.4092 146.958 29.6042L146.25 28.5862C145.607 27.6619 144.44 27.3121 143.422 27.6681C143.459 24.3594 143.647 21.2706 143.931 19.0003C144.095 17.6881 144.214 16.7122 144.44 16.3006C144.87 15.5165 144.84 14.5612 144.363 13.805L143.832 12.9641C143.299 12.1206 142.309 11.6826 141.326 11.8553C141.326 11.8553 136.607 12.6859 132.5 13.2103C132.446 13.217 132.392 13.2259 132.339 13.2364L132.151 12.9124C131.624 12.0023 130.577 11.528 129.545 11.7324C129.545 11.7324 124.929 12.6468 120.793 13.213C119.668 13.367 118.794 14.2713 118.68 15.4012L118.37 18.4553C118.294 19.2078 118.568 19.9535 119.114 20.4773C119.585 20.9304 120.215 21.1738 120.861 21.1621ZM131.967 21.0853C131.841 22.9338 131.774 25.0661 131.774 27.1575C131.774 27.4062 131.818 27.7114 131.854 27.9189C132.003 27.8983 132.151 27.8482 132.3 27.7793V21.1172C132.188 21.1142 132.077 21.1034 131.967 21.0853Z" fill="#26A9E2"/>
<path fill-rule="evenodd" clip-rule="evenodd" d="M145.25 25.9809C144.47 26.3353 143.91 27.0834 143.821 27.9751C143.648 29.7004 143.391 32.2452 143.176 33.5823C143.077 34.1949 143.213 34.822 143.557 35.338L143.911 35.8692C144.139 36.2107 144.449 36.4898 144.812 36.681C144.812 36.681 147.793 38.2919 152.198 38.2919C159.298 38.2919 164.218 34.0993 164.218 29.0608C164.218 26.8766 163.725 25.1722 161.841 23.4927C162.442 23.0909 162.856 22.431 162.925 21.6671C163.179 18.8304 163.729 16.036 163.729 16.036C163.839 15.4769 163.752 14.8968 163.482 14.3949L163.172 13.8195C162.897 13.3092 162.451 12.9124 161.911 12.6991C161.911 12.6991 159.421 11.6854 155.784 11.6854C148.37 11.6854 143.675 15.7643 143.675 21.1821C143.675 22.995 144.149 24.5841 145.25 25.9809Z" fill="#26A9E2"/>
<path d="M15.782 35.7887C22.4656 35.7887 26.3164 34.151 26.3164 34.151L26.759 33.5313C26.5377 32.6903 26.4492 31.451 26.4492 29.7247C26.4492 24.369 26.7147 23.2624 28.4852 22.2002L28.1311 20.1198C28.1311 20.1198 25.6082 20.3411 23.3066 20.3411C20.9164 20.3411 18.4377 20.2969 16.8885 20.2969L16.3574 23.8821L16.6672 24.369C16.6672 24.369 17.818 24.3247 18.6147 24.3247C19.9869 24.3247 20.341 24.7231 20.341 26.3165V29.9018C20.341 29.9018 19.1016 30.787 16.8885 30.787C12.8164 30.787 10.6475 27.246 10.6475 20.1641C10.6475 13.8788 12.6393 11.3116 17.1984 11.3116C20.0311 11.3116 21.0492 12.1083 21.0492 14.4542C21.0492 15.8264 20.9607 16.8887 20.9607 16.8887L26.3164 16.5788C26.582 11.71 27.5557 8.08048 27.5557 8.08048L27.1574 7.37228C27.1574 7.37228 22.2885 6.26572 18.3049 6.26572C8.21311 6.26572 2.45901 11.9313 2.45901 21.7133C2.45901 30.5215 7.46066 35.7887 15.782 35.7887Z" fill="#FFDD18"/>
<path d="M30.123 35.6116C31.982 35.4346 34.1066 35.3018 35.3902 35.3018C36.8951 35.3018 39.1525 35.3903 41.0557 35.4788L41.5426 32.4247L41.4098 32.1592L39.9492 32.2034C39.1082 32.2034 38.7984 31.7608 38.7984 30.4772C38.7984 15.6493 39.2852 6.00014 40.259 3.43292L39.9049 2.45915C36.4967 3.03456 33.0443 3.52145 29.6361 3.96407L29.3262 6.70833L29.5475 6.97391C32.2475 6.88538 32.5574 7.19522 32.5574 9.45259V29.3706C32.5574 31.3624 32.3361 32.0706 30.5213 32.4247L30.123 35.6116Z" fill="#FFDD18"/>
<path d="M52.8295 35.8329C59.4689 35.8329 63.718 31.3624 63.718 24.4133C63.718 17.951 60.1328 14.1444 54.0246 14.1444C47.4295 14.1444 43.1361 18.6149 43.1361 25.5641C43.1361 31.8493 46.9426 35.8329 52.8295 35.8329ZM53.582 31.8936C51.2361 31.8936 50.0852 29.5477 50.0852 23.7493C50.0852 20.1198 51.059 18.5706 53.1393 18.5706C55.4852 18.5706 56.6361 20.9165 56.6361 26.6264C56.6361 30.3444 55.7066 31.8936 53.582 31.8936Z" fill="#FFDD18"/>
<path d="M66.6836 32.2919L66.241 35.5231C66.241 35.5231 69.5164 35.3018 72.2606 35.3018C74.518 35.3018 78.6344 35.5231 78.6344 35.5231L79.1656 32.0706L78.9885 31.7608C78.9885 31.7608 77.5279 31.9378 76.6426 31.9378C75.4918 31.9378 75.0934 31.451 75.0934 30.1674C75.0934 29.4592 75.536 21.8903 75.536 21.8903C76.2885 21.0051 77.1738 20.4739 77.9262 20.4739C78.9442 20.4739 79.2098 21.1821 79.2098 24.2362L82.618 24.0149C82.8393 19.987 83.5918 15.0739 83.5918 15.0739L83.4147 14.6756C83.4147 14.6756 82.618 14.4985 81.8213 14.4985C79.6525 14.4985 77.4836 15.9592 75.5803 18.7034L75.2705 18.5264C75.359 16.7116 75.8016 14.587 75.8016 14.587L75.3147 14.1444C75.3147 14.1444 70.6229 15.0297 66.241 15.6936L65.9311 18.3936L66.1524 18.7034C66.1524 18.7034 66.6393 18.6592 66.9492 18.6592C68.5426 18.6592 68.941 19.1903 68.941 21.2706V29.5919C68.941 31.5837 68.4098 32.1592 66.6836 32.2919Z" fill="#FFDD18"/>
<path d="M90.4082 11.1346C92.7541 11.1346 94.3033 9.54112 94.3033 7.15096C94.3033 4.93784 93.0197 3.52145 90.7623 3.52145C88.3721 3.52145 86.823 5.11489 86.823 7.54932C86.823 9.76243 88.0623 11.1346 90.4082 11.1346ZM84.7426 35.7887C84.7426 35.7887 88.2393 35.3018 90.5853 35.3018C92.5328 35.3018 95.9852 35.4788 95.9852 35.4788L96.4279 32.2477L96.3393 32.0706C96.3393 32.0706 95.5869 32.1592 95.1443 32.1592C94.2148 32.1592 93.9049 31.7165 93.9049 30.4772C93.9049 22.1559 94.3033 16.269 94.9672 14.9854L94.4803 14.1444C94.4803 14.1444 89.6115 15.1182 85.0082 15.6936L84.6984 18.7477C84.6984 18.7477 85.3623 18.5706 85.7164 18.5706C87.2656 18.5706 87.7082 19.146 87.7082 21.0936V29.769C87.7082 31.4067 86.9115 32.2477 85.1853 32.469L84.7426 35.7887Z" fill="#FFDD18"/>
<path d="M108.157 35.8329C114.797 35.8329 119.046 31.3624 119.046 24.4133C119.046 17.951 115.461 14.1444 109.352 14.1444C102.757 14.1444 98.4639 18.6149 98.4639 25.5641C98.4639 31.8493 102.27 35.8329 108.157 35.8329ZM108.91 31.8936C106.564 31.8936 105.413 29.5477 105.413 23.7493C105.413 20.1198 106.387 18.5706 108.467 18.5706C110.813 18.5706 111.964 20.9165 111.964 26.6264C111.964 30.3444 111.034 31.8936 108.91 31.8936Z" fill="#FFDD18"/>
<path d="M123.339 20.6067L123.029 30.0346C123.029 33.7526 125.597 35.7887 130.421 35.7887C131.041 35.7887 132.767 34.3723 134.803 32.2919L135.202 32.5132C135.556 34.7264 137.149 35.8329 139.982 35.8329C142.416 35.0805 144.939 31.0083 144.939 31.0083L144.231 29.9903C144.231 29.9903 143.346 30.5657 142.416 30.5657C141.531 30.5657 140.956 29.9018 140.956 28.8837C140.956 22.4215 141.531 16.4903 142.284 15.1182L141.752 14.2772C141.752 14.2772 136.972 15.1182 132.811 15.6493L132.369 18.6592H132.988C134.449 18.7034 134.759 19.0133 134.759 20.6952V29.1493C133.741 29.769 132.679 30.3887 131.705 30.3887C130.111 30.3887 129.315 29.3706 129.315 27.1575C129.315 21.8903 129.846 16.4018 130.51 14.9854L130.023 14.1444C130.023 14.1444 125.331 15.0739 121.126 15.6493L120.816 18.7034C120.816 18.7034 121.436 18.6149 121.967 18.6149C122.985 18.6149 123.339 19.146 123.339 20.6067Z" fill="#FFDD18"/>
<path d="M152.198 35.8329C157.687 35.8329 161.759 32.9559 161.759 29.0608C161.759 26.228 160.387 24.7231 155.075 22.3329C153.216 21.4919 152.464 20.7395 152.464 19.7657C152.464 18.7919 153.393 18.128 154.766 18.128C156.625 18.128 157.51 19.0575 157.554 21.0936C157.554 21.2706 157.51 21.6247 157.51 21.6247L160.475 21.4477C160.741 18.4821 161.316 15.5608 161.316 15.5608L161.007 14.9854C161.007 14.9854 158.882 14.1444 155.784 14.1444C150.03 14.1444 146.134 16.9772 146.134 21.1821C146.134 23.8378 147.684 25.6969 151.269 27.246C154.589 28.751 155.341 29.3264 155.341 30.3887C155.341 31.3182 154.323 31.9821 152.907 31.9821C150.605 31.9821 149.233 30.4772 149.189 27.9542L146.267 28.2198C146.09 29.9903 145.825 32.6018 145.603 33.9739L145.957 34.5051C145.957 34.5051 148.48 35.8329 152.198 35.8329Z" fill="#FFDD18"/>
<path fill-rule="evenodd" clip-rule="evenodd" d="M26.206 8.4272C25.9392 9.58724 25.413 12.1683 25.1613 15.4142L22.2602 15.582C22.271 15.2445 22.2787 14.8624 22.2787 14.4542C22.2787 13.1774 21.9974 12.2537 21.4847 11.5861C20.744 10.6209 19.4262 10.0821 17.1984 10.0821C15.0261 10.0821 13.358 10.6197 12.1205 11.686C10.3611 13.202 9.41803 15.9069 9.41803 20.1641C9.41803 28.2174 12.2579 32.0165 16.8885 32.0165C19.567 32.0165 21.0556 30.9023 21.0556 30.9023C21.3787 30.6714 21.5705 30.2989 21.5705 29.9018V26.3165C21.5705 25.1018 21.3163 24.3715 20.9198 23.9159C20.4762 23.4063 19.7852 23.0952 18.6148 23.0952C18.3366 23.0952 18.0163 23.1004 17.7151 23.1075L17.9487 21.5313C19.4493 21.5427 21.406 21.5706 23.3066 21.5706C24.6833 21.5706 26.1372 21.4932 27.107 21.4292L27.1402 21.6247C26.2143 22.3375 25.7026 23.2056 25.4413 24.8786C25.2701 25.9732 25.2197 27.495 25.2197 29.7247C25.2197 31.1771 25.2867 32.3101 25.4287 33.1701C24.3101 33.558 20.9238 34.5592 15.782 34.5592C12.0071 34.5592 8.9708 33.4022 6.89262 31.2084C4.79262 28.9916 3.68852 25.7513 3.68852 21.7133C3.68852 17.2068 4.96937 13.6323 7.45697 11.2007C9.95502 8.75886 13.6365 7.49523 18.3049 7.49523C21.2794 7.49523 24.7632 8.13396 26.206 8.4272Z" fill="#FFEA00"/>
<path fill-rule="evenodd" clip-rule="evenodd" d="M38.8518 3.87954C38.0247 7.42114 37.5689 16.7709 37.5689 30.4772C37.5689 31.7371 37.9027 32.4576 38.3456 32.868C38.7274 33.2211 39.2382 33.4329 39.9492 33.4329L40.1376 33.4277L40.0143 34.2017C38.3714 34.1313 36.6286 34.0723 35.3902 34.0723C34.421 34.0723 32.9828 34.1457 31.5314 34.257L31.6389 33.3967C32.2011 33.1975 32.6044 32.9371 32.9063 32.6248C33.5312 31.9781 33.7869 31.0092 33.7869 29.3706V9.45259C33.7869 7.79306 33.466 6.90474 32.8558 6.39204C32.4326 6.03671 31.7637 5.81325 30.6713 5.753L30.75 5.05833C33.4426 4.70239 36.1577 4.31663 38.8518 3.87954Z" fill="#FFEA00"/>
<path fill-rule="evenodd" clip-rule="evenodd" d="M52.8295 34.6034C50.2632 34.6034 48.1392 33.7633 46.6678 32.2099C45.1737 30.6324 44.3656 28.3471 44.3656 25.5641C44.3656 22.4494 45.2951 19.8782 46.9961 18.0976C48.6784 16.3372 51.1017 15.3739 54.0246 15.3739C56.6896 15.3739 58.8194 16.1639 60.2677 17.6992C61.7388 19.2588 62.4885 21.5491 62.4885 24.4133C62.4885 27.5285 61.5698 30.1 59.8734 31.881C58.196 33.6416 55.772 34.6034 52.8295 34.6034ZM53.582 33.1231C54.5004 33.1231 55.2569 32.8972 55.8756 32.4714C57.1014 31.6277 57.8656 29.8102 57.8656 26.6264C57.8656 23.5369 57.5185 21.3628 56.89 19.9557C56.069 18.1182 54.797 17.3411 53.1393 17.3411C50.4722 17.3411 48.8557 19.0959 48.8557 23.7493C48.8557 26.8821 49.2022 29.0771 49.8298 30.4938C50.6508 32.3473 51.9243 33.1231 53.582 33.1231Z" fill="#FFEA00"/>
<path fill-rule="evenodd" clip-rule="evenodd" d="M74.3745 15.5685C74.2423 16.3772 74.0914 17.4668 74.0425 18.4664C74.0201 18.9287 74.2589 19.3643 74.6607 19.5939L74.9705 19.7709C75.3065 19.963 75.6981 19.9796 76.0349 19.8459C75.5379 20.1502 75.0464 20.568 74.5992 21.0942C74.4264 21.2977 74.3244 21.5519 74.3087 21.8187C74.3087 21.8187 73.8639 29.453 73.8639 30.1673C73.8639 31.198 74.1148 31.884 74.5054 32.3371C74.9444 32.8458 75.6055 33.1673 76.6426 33.1673C76.9715 33.1673 77.3751 33.1446 77.7609 33.1148L77.5878 34.2401C76.1932 34.174 73.7994 34.0723 72.2607 34.0723C70.6614 34.0723 68.8841 34.1463 67.662 34.2093L67.7776 33.3656C68.5097 33.1855 69.0243 32.8726 69.3959 32.4361C69.8843 31.8622 70.1705 30.988 70.1705 29.5919V21.2706C70.1705 19.4577 69.7543 18.5165 69.0879 18.0044C68.6674 17.6814 68.0914 17.4801 67.2784 17.4379L67.3555 16.7657C70.1213 16.3323 72.8711 15.8427 74.3745 15.5685ZM82.2516 15.7464C82.0525 17.1582 81.6642 20.0912 81.4608 22.8579L80.4135 22.9258C80.3696 21.9392 80.2694 21.2623 80.1117 20.8071C79.9076 20.2185 79.6011 19.8555 79.247 19.6151C78.892 19.3741 78.4635 19.2444 77.9262 19.2444C77.4301 19.2444 76.8802 19.3919 76.3279 19.6799C76.4268 19.604 76.516 19.5118 76.5907 19.4042C78.2075 17.0728 79.9789 15.728 81.8213 15.728C81.967 15.728 82.1127 15.7351 82.2516 15.7464Z" fill="#FFEA00"/>
<path fill-rule="evenodd" clip-rule="evenodd" d="M93.497 15.5851C93.3971 16.0219 93.3043 16.5515 93.2253 17.169C92.8764 19.8963 92.6754 24.5832 92.6754 30.4772C92.6754 31.7279 93.0224 32.4465 93.5102 32.8609C93.8717 33.1683 94.3568 33.3671 95.0308 33.3868L94.9199 34.198C93.726 34.1454 91.8446 34.0723 90.5852 34.0723C89.203 34.0723 87.4325 34.2358 86.1716 34.3757L86.289 33.4932C87.0163 33.2774 87.5754 32.9347 87.991 32.4911C88.5953 31.8465 88.9377 30.9616 88.9377 29.769V21.0936C88.9377 19.3732 88.5132 18.4397 87.8327 17.9205C87.4149 17.6015 86.8515 17.3986 86.0757 17.3519L86.1332 16.7869C89.0465 16.3929 91.9236 15.8795 93.497 15.5851ZM90.4082 9.90505C89.6293 9.90505 89.0173 9.72585 88.6171 9.31428C88.2144 8.90085 88.0524 8.28794 88.0524 7.54932C88.0524 6.69389 88.294 5.97524 88.776 5.48159C89.2491 4.99716 89.9385 4.75095 90.7623 4.75095C91.5015 4.75095 92.0957 4.94307 92.4907 5.35587C92.897 5.78097 93.0738 6.40556 93.0738 7.15095C93.0738 7.9864 92.8315 8.69276 92.3557 9.18026C91.8891 9.65792 91.212 9.90505 90.4082 9.90505Z" fill="#FFEA00"/>
<path fill-rule="evenodd" clip-rule="evenodd" d="M108.157 34.6034C105.591 34.6034 103.467 33.7633 101.996 32.2099C100.502 30.6324 99.6934 28.3471 99.6934 25.5641C99.6934 22.4494 100.623 19.8782 102.324 18.0976C104.006 16.3372 106.43 15.3739 109.352 15.3739C112.017 15.3739 114.147 16.1639 115.596 17.6992C117.067 19.2588 117.816 21.5491 117.816 24.4133C117.816 27.5285 116.898 30.1 115.201 31.881C113.524 33.6416 111.1 34.6034 108.157 34.6034ZM108.91 33.1231C109.828 33.1231 110.585 32.8972 111.203 32.4714C112.429 31.6277 113.193 29.8102 113.193 26.6264C113.193 23.5369 112.846 21.3628 112.218 19.9557C111.397 18.1182 110.125 17.3411 108.467 17.3411C105.8 17.3411 104.184 19.0959 104.184 23.7493C104.184 26.8821 104.53 29.0771 105.158 30.4938C105.979 32.3473 107.252 33.1231 108.91 33.1231Z" fill="#FFEA00"/>
<path fill-rule="evenodd" clip-rule="evenodd" d="M129.048 15.5832C128.509 17.907 128.085 22.6093 128.085 27.1575C128.085 28.9523 128.587 30.1277 129.362 30.811C129.951 31.3301 130.723 31.6182 131.705 31.6182C132.874 31.6182 134.176 30.9435 135.398 30.1996C135.765 29.9765 135.989 29.5784 135.989 29.1493V20.6952C135.989 19.4178 135.736 18.6927 135.341 18.2473C135.012 17.8756 134.533 17.6144 133.782 17.497L133.893 16.7473C136.539 16.3898 139.273 15.9444 140.782 15.6905C140.664 16.134 140.551 16.667 140.452 17.2775C140.017 19.9446 139.726 24.2817 139.726 28.8837C139.726 30.6954 140.841 31.7952 142.416 31.7952C142.582 31.7952 142.746 31.7823 142.907 31.7592C142.612 32.1407 142.264 32.5612 141.882 32.9685C141.246 33.6468 140.523 34.3139 139.783 34.6009C137.84 34.5582 136.665 33.8768 136.416 32.319C136.356 31.9464 136.129 31.6218 135.799 31.4386L135.401 31.2173C134.916 30.9481 134.312 31.0363 133.924 31.4319C132.401 32.9888 130.535 34.3729 130.282 34.5585C127.909 34.5389 126.168 34.0126 125.172 32.8615C124.554 32.1478 124.263 31.2014 124.259 30.0576C124.259 30.0536 124.568 20.6473 124.568 20.6473C124.569 20.6337 124.569 20.6202 124.569 20.6067C124.569 19.2422 124.219 18.4431 123.718 17.9863C123.345 17.6473 122.854 17.43 122.185 17.3915L122.252 16.7316C124.883 16.3468 127.552 15.8642 129.048 15.5832Z" fill="#FFEA00"/>
<path fill-rule="evenodd" clip-rule="evenodd" d="M159.994 15.9469C159.839 16.8124 159.559 18.476 159.357 20.2827L158.729 20.3202C158.599 19.3056 158.247 18.5467 157.735 18.0038C157.072 17.3012 156.107 16.8985 154.766 16.8985C152.556 16.8985 151.234 18.1978 151.234 19.7657C151.234 21.0877 152.045 22.3114 154.569 23.4533C154.569 23.4536 154.57 23.4539 154.571 23.4542C159.153 25.5161 160.53 26.6168 160.53 29.0608C160.53 30.6127 159.685 31.9428 158.327 32.9039C156.801 33.9837 154.655 34.6034 152.198 34.6034C149.627 34.6034 147.684 33.9149 146.904 33.5866C147.067 32.4183 147.244 30.768 147.389 29.3525L148.097 29.2879C148.3 30.2925 148.718 31.1178 149.296 31.7467C150.148 32.6731 151.365 33.2116 152.907 33.2116C155.158 33.2116 156.57 31.8662 156.57 30.3887C156.57 29.5003 156.309 28.7866 155.3 28.0096C154.651 27.5095 153.563 26.9362 151.777 26.1263C151.77 26.1232 151.763 26.1204 151.757 26.1174C148.775 24.8291 147.364 23.3903 147.364 21.1821C147.364 17.5809 150.855 15.3739 155.784 15.3739C157.709 15.3739 159.223 15.7234 159.994 15.9469Z" fill="#FFEA00"/>
<path fill-rule="evenodd" clip-rule="evenodd" d="M197.222 35.883C201.156 32.7222 203.614 27.665 203.614 21.5411C203.614 16.3335 202.16 12.2937 199.588 9.52236C196.96 6.68958 193.122 5.09521 188.142 5.09521C182.852 5.09521 178.64 6.878 175.723 9.99634C172.858 13.059 171.209 17.4748 171.209 23.0018C171.209 28.1715 172.677 32.2437 175.236 35.0537C177.695 37.7531 181.189 39.3607 185.606 39.5595C195.488 48.1142 198.243 49.4067 202.306 49.4067C202.972 49.4067 204.244 48.9985 205.611 48.203C207.758 46.9532 210.483 44.8732 210.483 44.8732C211.259 44.2796 211.61 43.2831 211.378 42.3339L210.802 39.988C210.673 39.4615 210.373 38.9924 209.95 38.6537L209.508 38.2996C208.916 37.8262 208.139 37.6523 207.402 37.8278C207.402 37.8278 205.818 38.2034 204.121 38.2034C202.107 38.2034 199.778 37.3729 197.222 35.883ZM187.566 30.1034C186.634 30.1034 185.969 29.5907 185.495 28.6529C184.661 27.0047 184.316 24.4858 184.316 21.0542C184.316 19.1706 184.515 17.6725 184.98 16.5598C185.388 15.5826 186.061 15.0591 187.035 15.0591C188.321 15.0591 189.103 15.898 189.618 17.3952C190.173 19.0135 190.419 21.2091 190.419 24.0198C190.419 25.9016 190.214 27.4102 189.738 28.5355C189.307 29.5529 188.595 30.1034 187.566 30.1034Z" fill="#231F20"/>
<path fill-rule="evenodd" clip-rule="evenodd" d="M202.793 22.4506L202.504 31.2422C202.503 31.2693 202.502 31.2963 202.502 31.3231C202.502 33.4772 203.153 35.2222 204.314 36.5639C205.892 38.3866 208.556 39.5362 212.353 39.5362C212.822 39.5362 213.604 39.3733 214.522 38.7813C214.984 38.4828 215.563 38.0331 216.219 37.4617C216.286 37.5352 216.355 37.6068 216.426 37.6766C217.615 38.8495 219.412 39.5805 221.914 39.5805C222.16 39.5805 222.405 39.5436 222.64 39.4707C223.968 39.0604 225.365 37.9947 226.504 36.7806C227.929 35.2609 228.962 33.5921 228.962 33.5921C229.478 32.7585 229.45 31.6978 228.89 30.8927L228.182 29.8747C227.539 28.9504 226.372 28.6006 225.354 28.9566C225.391 25.648 225.579 22.5591 225.863 20.2889C226.027 18.9767 226.146 18.0007 226.372 17.5892C226.802 16.805 226.772 15.8497 226.295 15.0936L225.764 14.2526C225.231 13.4091 224.241 12.9711 223.258 13.1439C223.258 13.1439 218.539 13.9744 214.432 14.4988C214.378 14.5056 214.324 14.5145 214.271 14.5249L214.083 14.2009C213.556 13.2908 212.509 12.8165 211.477 13.0209C211.477 13.0209 206.861 13.9354 202.725 14.5016C201.6 14.6556 200.726 15.5599 200.612 16.6898L200.302 19.7439C200.226 20.4963 200.5 21.242 201.046 21.7658C201.517 22.2189 202.147 22.4623 202.793 22.4506ZM213.899 22.3738C213.773 24.2224 213.706 26.3546 213.706 28.446C213.706 28.6947 213.75 28.9999 213.786 29.2074C213.935 29.1868 214.083 29.1367 214.232 29.0678V22.4058C214.12 22.4027 214.009 22.3919 213.899 22.3738Z" fill="#231F20"/>
<path fill-rule="evenodd" clip-rule="evenodd" d="M246.408 28.9704C246.652 28.8631 246.879 28.7159 247.079 28.5324L247.61 28.0455C247.976 27.7096 248.232 27.2703 248.344 26.7859C248.505 26.0927 248.717 24.7593 248.717 23.5329C248.717 20.0528 247.748 17.4847 246.058 15.7446C244.346 13.9818 241.818 12.9739 238.38 12.9739C230.584 12.9739 225.121 18.6638 225.121 26.6755C225.121 30.7013 226.376 33.8798 228.552 36.0831C230.736 38.2938 233.897 39.5805 237.937 39.5805C240.971 39.5805 245.152 37.3904 247.401 35.6642C248.211 35.0423 248.553 33.9847 248.26 33.0066L247.463 30.3508C247.29 29.7742 246.912 29.2849 246.408 28.9704ZM242.343 29.1788H237.725C238.171 29.5695 238.797 29.705 239.53 29.705C240.359 29.705 241.307 29.5311 242.343 29.1788Z" fill="#231F20"/>
<path fill-rule="evenodd" clip-rule="evenodd" d="M247.985 27.2694C247.206 27.6238 246.645 28.372 246.556 29.2637C246.383 30.989 246.127 33.5337 245.911 34.8708C245.812 35.4834 245.948 36.1105 246.293 36.6266L246.647 37.1577C246.875 37.4992 247.184 37.7783 247.547 37.9695C247.547 37.9695 250.529 39.5805 254.934 39.5805C262.033 39.5805 266.953 35.3878 266.953 30.3493C266.953 28.1651 266.461 26.4607 264.576 24.7812C265.178 24.3794 265.592 23.7195 265.66 22.9557C265.914 20.1189 266.464 17.3245 266.464 17.3245C266.575 16.7654 266.487 16.1854 266.217 15.6834L265.907 15.108C265.632 14.5978 265.186 14.201 264.647 13.9876C264.647 13.9876 262.157 12.9739 258.519 12.9739C251.105 12.9739 246.411 17.0528 246.411 22.4706C246.411 24.2835 246.884 25.8727 247.985 27.2694Z" fill="#231F20"/>
<path fill-rule="evenodd" clip-rule="evenodd" d="M265.975 22.2711V22.2936V31.6329C265.975 34.3185 266.856 36.2768 268.393 37.6114C269.809 38.8412 271.901 39.5805 274.763 39.5805C275.559 39.5805 276.789 39.144 278.02 38.2938C279.859 37.0234 281.956 34.9111 281.956 34.9111C282.638 34.2213 282.851 33.195 282.499 32.291L281.88 30.6976C281.642 30.0859 281.169 29.5947 280.567 29.3331C279.965 29.0718 279.284 29.0617 278.675 29.3055C278.675 29.3055 277.862 29.6543 277.172 29.6608C277.136 29.4459 277.089 29.114 277.089 28.8444C277.089 26.4601 277.13 24.3613 277.198 22.5198L279.384 22.5828C280.633 22.6188 281.71 21.7132 281.889 20.477L282.376 17.113C282.487 16.3455 282.229 15.5703 281.681 15.022L281.459 14.8006C280.981 14.3221 280.326 14.0617 279.649 14.0817L277.963 14.1306C278.071 13.4251 278.148 13.0381 278.148 13.0381C278.357 11.9943 277.87 10.9345 276.942 10.4128L275.526 9.61611C274.674 9.1366 273.619 9.20761 272.838 9.79685C272.838 9.79685 268.899 12.7763 264.831 14.6629C264.059 15.0213 263.527 15.7535 263.425 16.5991L263.115 19.1663C263.004 20.0872 263.421 20.9921 264.192 21.507L264.724 21.8611C265.096 22.1091 265.528 22.2508 265.975 22.2711Z" fill="#231F20"/>
<path fill-rule="evenodd" clip-rule="evenodd" d="M280.961 27.2694C280.181 27.6238 279.62 28.372 279.531 29.2637C279.359 30.989 279.102 33.5337 278.886 34.8708C278.788 35.4834 278.924 36.1105 279.268 36.6266L279.622 37.1577C279.85 37.4992 280.159 37.7783 280.523 37.9695C280.523 37.9695 283.504 39.5805 287.909 39.5805C295.009 39.5805 299.929 35.3878 299.929 30.3493C299.929 28.1651 299.436 26.4607 297.552 24.7812C298.153 24.3794 298.567 23.7195 298.635 22.9557C298.889 20.1189 299.44 17.3245 299.44 17.3245C299.55 16.7654 299.462 16.1854 299.192 15.6834L298.882 15.108C298.608 14.5978 298.161 14.201 297.622 13.9876C297.622 13.9876 295.132 12.9739 291.494 12.9739C284.08 12.9739 279.386 17.0528 279.386 22.4706C279.386 24.2835 279.86 25.8727 280.961 27.2694Z" fill="#231F20"/>
<path fill-rule="evenodd" clip-rule="evenodd" d="M195.993 34.6535C199.927 31.4927 202.384 26.4355 202.384 20.3116C202.384 15.104 200.93 11.0642 198.358 8.29285C195.73 5.46007 191.892 3.8657 186.912 3.8657C181.623 3.8657 177.411 5.64849 174.494 8.76683C171.628 11.8295 169.98 16.2453 169.98 21.7723C169.98 26.942 171.448 31.0142 174.006 33.8242C176.465 36.5236 179.959 38.1312 184.376 38.33C194.259 46.8846 197.013 48.1772 201.076 48.1772C201.742 48.1772 203.015 47.769 204.381 46.9735C206.529 45.7237 209.254 43.6437 209.254 43.6437C210.03 43.0501 210.381 42.0536 210.148 41.1044L209.573 38.7585C209.444 38.232 209.144 37.7629 208.721 37.4242L208.278 37.0701C207.686 36.5967 206.909 36.4228 206.172 36.5983C206.172 36.5983 204.588 36.9739 202.891 36.9739C200.878 36.9739 198.549 36.1434 195.993 34.6535ZM186.337 28.8739C185.405 28.8739 184.74 28.3612 184.266 27.4234C183.432 25.7752 183.086 23.2563 183.086 19.8247C183.086 17.9411 183.285 16.443 183.75 15.3302C184.159 14.3531 184.831 13.8296 185.806 13.8296C187.092 13.8296 187.873 14.6685 188.388 16.1657C188.944 17.784 189.189 19.9796 189.189 22.7903C189.189 24.6721 188.984 26.1807 188.508 27.306C188.078 28.3234 187.365 28.8739 186.337 28.8739Z" fill="#26A9E2"/>
<path fill-rule="evenodd" clip-rule="evenodd" d="M201.563 21.2211L201.274 30.0127C201.274 30.0398 201.273 30.0668 201.273 30.0936C201.273 32.2477 201.924 33.9926 203.085 35.3343C204.662 37.1571 207.327 38.3067 211.124 38.3067C211.593 38.3067 212.375 38.1438 213.292 37.5518C213.754 37.2533 214.333 36.8036 214.99 36.2322C215.057 36.3057 215.126 36.3773 215.197 36.4471C216.385 37.62 218.182 38.3509 220.684 38.3509C220.931 38.3509 221.175 38.3141 221.411 38.2412C222.739 37.8309 224.136 36.7652 225.275 35.551C226.7 34.0314 227.732 32.3626 227.732 32.3626C228.249 31.529 228.22 30.4683 227.66 29.6632L226.952 28.6452C226.309 27.7209 225.143 27.3711 224.124 27.7271C224.161 24.4185 224.35 21.3296 224.634 19.0593C224.798 17.7472 224.916 16.7712 225.142 16.3597C225.572 15.5755 225.543 14.6202 225.065 13.8641L224.534 13.0231C224.001 12.1796 223.012 11.7416 222.029 11.9144C222.029 11.9144 217.31 12.7449 213.203 13.2693C213.148 13.276 213.094 13.285 213.041 13.2954L212.854 12.9714C212.327 12.0613 211.279 11.587 210.247 11.7914C210.247 11.7914 205.632 12.7059 201.495 13.2721C200.37 13.426 199.497 14.3303 199.382 15.4603L199.072 18.5144C198.996 19.2668 199.27 20.0125 199.816 20.5363C200.288 20.9894 200.917 21.2328 201.563 21.2211ZM212.67 21.1443C212.544 22.9929 212.476 25.1251 212.476 27.2165C212.476 27.4652 212.521 27.7704 212.557 27.9779C212.706 27.9573 212.854 27.9072 213.002 27.8383V21.1763C212.89 21.1732 212.779 21.1624 212.67 21.1443Z" fill="#26A9E2"/>
<path fill-rule="evenodd" clip-rule="evenodd" d="M245.178 27.7409C245.422 27.6336 245.649 27.4864 245.849 27.3029L246.381 26.816C246.747 26.48 247.003 26.0408 247.115 25.5564C247.275 24.8632 247.488 23.5298 247.488 22.3034C247.488 18.8233 246.519 16.2551 244.829 14.5151C243.116 12.7523 240.589 11.7444 237.15 11.7444C229.355 11.7444 223.891 17.4342 223.891 25.446C223.891 29.4717 225.147 32.6503 227.323 34.8536C229.506 37.0643 232.668 38.3509 236.707 38.3509C239.742 38.3509 243.922 36.1609 246.172 34.4347C246.982 33.8128 247.323 32.7551 247.03 31.7771L246.233 29.1213C246.06 28.5447 245.683 28.0554 245.178 27.7409ZM241.114 27.9493H236.496C236.942 28.34 237.568 28.4755 238.301 28.4755C239.129 28.4755 240.077 28.3016 241.114 27.9493Z" fill="#26A9E2"/>
<path fill-rule="evenodd" clip-rule="evenodd" d="M246.756 26.0399C245.976 26.3943 245.415 27.1424 245.326 28.0341C245.154 29.7595 244.897 32.3042 244.681 33.6413C244.583 34.2539 244.719 34.881 245.063 35.397L245.417 35.9282C245.645 36.2697 245.955 36.5488 246.318 36.74C246.318 36.74 249.299 38.3509 253.704 38.3509C260.804 38.3509 265.724 34.1583 265.724 29.1198C265.724 26.9356 265.231 25.2312 263.347 23.5517C263.948 23.1499 264.362 22.49 264.43 21.7262C264.685 18.8894 265.235 16.095 265.235 16.095C265.345 15.5359 265.258 14.9559 264.987 14.4539L264.678 13.8785C264.403 13.3683 263.956 12.9714 263.417 12.7581C263.417 12.7581 260.927 11.7444 257.289 11.7444C249.875 11.7444 245.181 15.8233 245.181 21.2411C245.181 23.054 245.655 24.6432 246.756 26.0399Z" fill="#26A9E2"/>
<path fill-rule="evenodd" clip-rule="evenodd" d="M264.745 21.0416V21.0641V30.4034C264.745 33.089 265.626 35.0473 267.163 36.3819C268.579 37.6117 270.672 38.3509 273.534 38.3509C274.33 38.3509 275.56 37.9145 276.791 37.0643C278.629 35.7939 280.727 33.6816 280.727 33.6816C281.409 32.9918 281.621 31.9655 281.27 31.0615L280.65 29.4681C280.412 28.8564 279.94 28.3652 279.338 28.1036C278.736 27.8423 278.054 27.8322 277.445 28.0759C277.445 28.0759 276.632 28.4248 275.943 28.4313C275.907 28.2164 275.86 27.8844 275.86 27.6149C275.86 25.2306 275.9 23.1318 275.968 21.2903L278.154 21.3533C279.403 21.3893 280.48 20.4837 280.659 19.2475L281.146 15.8835C281.257 15.116 281 14.3408 280.451 13.7924L280.23 13.5711C279.751 13.0925 279.096 12.8322 278.419 12.8522L276.733 12.9011C276.842 12.1956 276.919 11.8086 276.919 11.8086C277.128 10.7648 276.641 9.70495 275.713 9.18333L274.297 8.3866C273.445 7.9071 272.389 7.9781 271.609 8.56735C271.609 8.56735 267.669 11.5467 263.602 13.4334C262.83 13.7918 262.298 14.524 262.196 15.3696L261.886 17.9368C261.775 18.8577 262.191 19.7626 262.963 20.2775L263.494 20.6316C263.866 20.8796 264.299 21.0213 264.745 21.0416Z" fill="#26A9E2"/>
<path fill-rule="evenodd" clip-rule="evenodd" d="M279.731 26.0399C278.951 26.3943 278.391 27.1424 278.302 28.0341C278.129 29.7595 277.873 32.3042 277.657 33.6413C277.558 34.2539 277.694 34.881 278.039 35.397L278.393 35.9282C278.62 36.2697 278.93 36.5488 279.293 36.74C279.293 36.74 282.275 38.3509 286.68 38.3509C293.779 38.3509 298.699 34.1583 298.699 29.1198C298.699 26.9356 298.207 25.2312 296.322 23.5517C296.924 23.1499 297.338 22.49 297.406 21.7262C297.66 18.8894 298.21 16.095 298.21 16.095C298.321 15.5359 298.233 14.9559 297.963 14.4539L297.653 13.8785C297.378 13.3683 296.932 12.9714 296.393 12.7581C296.393 12.7581 293.903 11.7444 290.265 11.7444C282.851 11.7444 278.157 15.8233 278.157 21.2411C278.157 23.054 278.63 24.6432 279.731 26.0399Z" fill="#26A9E2"/>
<path d="M201.076 45.7181C202.493 45.7181 207.76 41.6903 207.76 41.6903L207.184 39.3444L206.742 38.9903C206.742 38.9903 204.883 39.4329 202.891 39.4329C199.793 39.4329 195.986 37.8395 191.825 34.8739V34.387C196.739 32.0411 199.925 26.8624 199.925 20.3116C199.925 11.3706 195.278 6.32471 186.912 6.32471C177.883 6.32471 172.439 12.1673 172.439 21.7723C172.439 30.669 177.175 35.8919 185.319 35.8919C194.88 44.2132 197.27 45.7181 201.076 45.7181ZM186.337 31.3329C182.575 31.3329 180.627 27.7034 180.627 19.8247C180.627 14.1149 182.442 11.3706 185.806 11.3706C189.701 11.3706 191.648 14.9116 191.648 22.7903C191.648 28.5001 189.789 31.3329 186.337 31.3329Z" fill="#FFDD18"/>
<path d="M204.042 20.6657L203.732 30.0936C203.732 33.8116 206.299 35.8477 211.124 35.8477C211.743 35.8477 213.47 34.4313 215.506 32.3509L215.904 32.5723C216.258 34.7854 217.852 35.8919 220.684 35.8919C223.119 35.1395 225.642 31.0673 225.642 31.0673L224.934 30.0493C224.934 30.0493 224.048 30.6247 223.119 30.6247C222.234 30.6247 221.658 29.9608 221.658 28.9427C221.658 22.4805 222.234 16.5493 222.986 15.1772L222.455 14.3362C222.455 14.3362 217.675 15.1772 213.514 15.7083L213.071 18.7182H213.691C215.152 18.7624 215.462 19.0723 215.462 20.7542V29.2083C214.443 29.828 213.381 30.4477 212.407 30.4477C210.814 30.4477 210.017 29.4296 210.017 27.2165C210.017 21.9493 210.548 16.4608 211.212 15.0444L210.725 14.2034C210.725 14.2034 206.034 15.1329 201.829 15.7083L201.519 18.7624C201.519 18.7624 202.139 18.6739 202.67 18.6739C203.688 18.6739 204.042 19.205 204.042 20.6657Z" fill="#FFDD18"/>
<path d="M236.707 35.8919C239.275 35.8919 242.771 33.9444 244.675 32.4837L243.878 29.828L243.48 29.6509C241.532 30.5362 239.762 30.9345 238.301 30.9345C235.202 30.9345 233.299 29.0755 233.166 25.4903H244.188L244.719 25.0034C244.852 24.428 245.029 23.3214 245.029 22.3034C245.029 16.9034 242.417 14.2034 237.15 14.2034C230.776 14.2034 226.35 18.8952 226.35 25.446C226.35 31.9968 230.157 35.8919 236.707 35.8919ZM233.078 22.6575C233.211 19.6919 234.362 18.3198 236.398 18.3198C237.947 18.3198 238.788 19.3378 238.788 21.4182C238.788 22.1264 238.655 22.2591 238.08 22.3477L233.078 22.6575Z" fill="#FFDD18"/>
<path d="M253.704 35.8919C259.193 35.8919 263.265 33.0149 263.265 29.1198C263.265 26.287 261.893 24.7821 256.581 22.3919C254.722 21.5509 253.97 20.7985 253.97 19.8247C253.97 18.8509 254.899 18.187 256.271 18.187C258.13 18.187 259.016 19.1165 259.06 21.1526C259.06 21.3296 259.016 21.6837 259.016 21.6837L261.981 21.5067C262.247 18.5411 262.822 15.6198 262.822 15.6198L262.512 15.0444C262.512 15.0444 260.388 14.2034 257.289 14.2034C251.535 14.2034 247.64 17.0362 247.64 21.2411C247.64 23.8968 249.189 25.7559 252.775 27.305C256.094 28.81 256.847 29.3854 256.847 30.4477C256.847 31.3772 255.829 32.0411 254.412 32.0411C252.111 32.0411 250.739 30.5362 250.694 28.0132L247.773 28.2788C247.596 30.0493 247.33 32.6608 247.109 34.0329L247.463 34.5641C247.463 34.5641 249.986 35.8919 253.704 35.8919Z" fill="#FFDD18"/>
<path d="M273.534 35.8919C275.083 35.8919 278.978 31.9526 278.978 31.9526L278.358 30.3591C278.358 30.3591 277.03 30.8903 275.924 30.8903C274.153 30.8903 273.401 29.8723 273.401 27.6149C273.401 24.0739 273.489 21.1526 273.622 18.7624L278.225 18.8952L278.712 15.5313L278.491 15.31L273.932 15.4427C274.198 12.8755 274.507 11.3264 274.507 11.3264L273.091 10.5296C273.091 10.5296 268.93 13.6723 264.637 15.6641L264.327 18.2313L264.858 18.5854C266.762 18.6296 267.204 19.1165 267.204 21.0641V30.4034C267.204 34.0772 269.284 35.8919 273.534 35.8919Z" fill="#FFDD18"/>
<path d="M286.68 35.8919C292.168 35.8919 296.24 33.0149 296.24 29.1198C296.24 26.287 294.868 24.7821 289.557 22.3919C287.698 21.5509 286.945 20.7985 286.945 19.8247C286.945 18.8509 287.875 18.187 289.247 18.187C291.106 18.187 291.991 19.1165 292.035 21.1526C292.035 21.3296 291.991 21.6837 291.991 21.6837L294.957 21.5067C295.222 18.5411 295.798 15.6198 295.798 15.6198L295.488 15.0444C295.488 15.0444 293.363 14.2034 290.265 14.2034C284.511 14.2034 280.616 17.0362 280.616 21.2411C280.616 23.8968 282.165 25.7559 285.75 27.305C289.07 28.81 289.822 29.3854 289.822 30.4477C289.822 31.3772 288.804 32.0411 287.388 32.0411C285.086 32.0411 283.714 30.5362 283.67 28.0132L280.748 28.2788C280.571 30.0493 280.306 32.6608 280.084 34.0329L280.439 34.5641C280.439 34.5641 282.961 35.8919 286.68 35.8919Z" fill="#FFDD18"/>
<path fill-rule="evenodd" clip-rule="evenodd" d="M206.167 40.3575L206.372 41.1932C205.498 41.8378 203.887 42.9936 202.526 43.7857C201.941 44.1262 201.113 44.461 201.044 44.4886C199.371 44.4843 198.006 44.1312 196.007 42.8826C193.772 41.4877 190.834 39.0625 186.126 34.9646C185.902 34.7697 185.615 34.6624 185.319 34.6624C181.643 34.6624 178.721 33.523 176.734 31.3406C174.71 29.1186 173.668 25.8601 173.668 21.7723C173.668 17.3319 174.885 13.7473 177.187 11.2867C179.463 8.85381 182.785 7.55422 186.912 7.55422C190.697 7.55422 193.657 8.6491 195.655 10.8017C197.68 12.9847 198.696 16.2097 198.696 20.3116C198.696 26.3337 195.812 31.1208 191.296 33.2774C190.868 33.4818 190.596 33.9133 190.596 34.387V34.8739C190.596 35.2713 190.788 35.6445 191.112 35.875C195.532 39.0259 199.599 40.6624 202.891 40.6624C204.164 40.6624 205.386 40.494 206.167 40.3575ZM186.337 32.5624C190.373 32.5624 192.878 29.465 192.878 22.7903C192.878 18.5897 192.317 15.5525 191.278 13.5582C190.064 11.2274 188.233 10.1411 185.806 10.1411C181.866 10.1411 179.398 13.1371 179.398 19.8247C179.398 24.0183 179.955 27.0742 180.974 29.0884C182.173 31.458 183.981 32.5624 186.337 32.5624Z" fill="#FFEA00"/>
<path fill-rule="evenodd" clip-rule="evenodd" d="M209.75 15.6422C209.211 17.966 208.788 22.6683 208.788 27.2165C208.788 29.0113 209.289 30.1867 210.065 30.87C210.654 31.3892 211.426 31.6772 212.407 31.6772C213.576 31.6772 214.879 31.0025 216.101 30.2586C216.467 30.0355 216.691 29.6374 216.691 29.2083V20.7542C216.691 19.4768 216.439 18.7517 216.044 18.3063C215.714 17.9347 215.236 17.6734 214.485 17.556L214.595 16.8063C217.241 16.4488 219.975 16.0034 221.485 15.7495C221.366 16.1931 221.253 16.726 221.154 17.3365C220.719 20.0036 220.429 24.3407 220.429 28.9427C220.429 30.7544 221.544 31.8542 223.119 31.8542C223.284 31.8542 223.448 31.8413 223.609 31.8183C223.314 32.1997 222.966 32.6202 222.584 33.0275C221.948 33.7059 221.225 34.3729 220.485 34.66C218.542 34.6172 217.368 33.9358 217.118 32.378C217.059 32.0055 216.831 31.6809 216.501 31.4977L216.103 31.2764C215.619 31.0071 215.015 31.0953 214.627 31.4909C213.104 33.0478 211.238 34.4319 210.985 34.6175C208.611 34.5979 206.87 34.0716 205.874 32.9205C205.256 32.2068 204.966 31.2604 204.962 30.1166C204.962 30.1126 205.271 20.7063 205.271 20.7063C205.271 20.6927 205.271 20.6792 205.271 20.6657C205.271 19.3012 204.922 18.5021 204.421 18.0453C204.048 17.7063 203.556 17.489 202.888 17.4505L202.955 16.7906C205.586 16.4058 208.254 15.9232 209.75 15.6422Z" fill="#FFEA00"/>
<path fill-rule="evenodd" clip-rule="evenodd" d="M243.614 24.2608H233.166C232.833 24.2608 232.513 24.3966 232.281 24.6373C232.049 24.8777 231.926 25.202 231.938 25.5358C232.018 27.692 232.678 29.3119 233.736 30.4102C234.831 31.5462 236.373 32.1641 238.301 32.1641C239.654 32.1641 241.251 31.8634 243.002 31.1857L243.247 32.003C241.452 33.2476 238.762 34.6624 236.707 34.6624C233.814 34.6624 231.511 33.8451 229.947 32.2615C228.379 30.6742 227.58 28.3464 227.58 25.446C227.58 19.6258 231.487 15.4329 237.15 15.4329C239.382 15.4329 241.072 15.9413 242.183 17.0851C243.305 18.2402 243.799 19.9932 243.799 22.3034C243.799 22.9895 243.709 23.7207 243.614 24.2608ZM231.85 22.6025C231.834 22.951 231.967 23.2898 232.216 23.5344C232.465 23.7788 232.806 23.9064 233.154 23.8846L238.155 23.5747C238.193 23.5726 238.23 23.5686 238.266 23.563C238.973 23.4542 239.355 23.2043 239.613 22.8785C239.837 22.5954 240.017 22.1731 240.017 21.4182C240.017 19.7051 239.499 18.5531 238.707 17.8766C238.116 17.3718 237.349 17.0903 236.398 17.0903C235.253 17.0903 234.317 17.4266 233.582 18.0638C232.604 18.9124 231.949 20.3814 231.85 22.6025Z" fill="#FFEA00"/>
<path fill-rule="evenodd" clip-rule="evenodd" d="M261.5 16.0059C261.345 16.8714 261.065 18.535 260.863 20.3417L260.235 20.3792C260.104 19.3646 259.753 18.6057 259.241 18.0628C258.578 17.3602 257.612 16.9575 256.271 16.9575C254.062 16.9575 252.74 18.2568 252.74 19.8247C252.74 21.1467 253.551 22.3704 256.074 23.5123C256.075 23.5126 256.076 23.5129 256.077 23.5132C260.659 25.5751 262.035 26.6758 262.035 29.1198C262.035 30.6717 261.19 32.0018 259.832 32.9629C258.307 34.0427 256.161 34.6624 253.704 34.6624C251.133 34.6624 249.19 33.9739 248.41 33.6456C248.573 32.4773 248.75 30.827 248.895 29.4115L249.603 29.347C249.806 30.3515 250.223 31.1768 250.802 31.8057C251.654 32.7321 252.871 33.2706 254.412 33.2706C256.664 33.2706 258.076 31.9252 258.076 30.4477C258.076 29.5593 257.815 28.8456 256.806 28.0686C256.157 27.5685 255.069 26.9952 253.282 26.1853C253.276 26.1822 253.269 26.1794 253.262 26.1764C250.281 24.8881 248.87 23.4493 248.87 21.2411C248.87 17.6399 252.361 15.4329 257.289 15.4329C259.214 15.4329 260.729 15.7824 261.5 16.0059Z" fill="#FFEA00"/>
<path fill-rule="evenodd" clip-rule="evenodd" d="M273.139 12.0158C273.022 12.7434 272.858 13.8733 272.709 15.3164C272.673 15.6687 272.79 16.0197 273.031 16.2794C273.272 16.5392 273.614 16.6821 273.968 16.6716L277.319 16.5742L277.166 17.6347L273.658 17.5335C272.992 17.5142 272.431 18.029 272.395 18.6942C272.261 21.1028 272.171 24.0465 272.171 27.6149C272.171 29.4472 272.663 30.6339 273.474 31.3237C274.069 31.8306 274.868 32.1198 275.924 32.1198C276.336 32.1198 276.775 32.0586 277.182 31.975C276.511 32.5978 275.569 33.4246 274.694 34.0295C274.394 34.2367 274.104 34.4165 273.84 34.5422C273.72 34.5994 273.622 34.6624 273.534 34.6624C271.777 34.6624 270.451 34.352 269.582 33.5971C268.773 32.8947 268.434 31.8167 268.434 30.4034V21.0641C268.434 19.6538 268.145 18.8058 267.641 18.2688C267.227 17.8295 266.615 17.5298 265.664 17.4112L265.777 16.4826C268.892 14.958 271.841 12.9422 273.139 12.0158Z" fill="#FFEA00"/>
<path fill-rule="evenodd" clip-rule="evenodd" d="M294.475 16.0059C294.32 16.8714 294.041 18.535 293.839 20.3417L293.21 20.3792C293.08 19.3646 292.728 18.6057 292.216 18.0628C291.553 17.3602 290.588 16.9575 289.247 16.9575C287.037 16.9575 285.716 18.2568 285.716 19.8247C285.716 21.1467 286.526 22.3704 289.05 23.5123C289.051 23.5126 289.051 23.5129 289.052 23.5132C293.635 25.5751 295.011 26.6758 295.011 29.1198C295.011 30.6717 294.166 32.0018 292.808 32.9629C291.283 34.0427 289.136 34.6624 286.68 34.6624C284.109 34.6624 282.165 33.9739 281.385 33.6456C281.548 32.4773 281.726 30.827 281.87 29.4115L282.578 29.347C282.781 30.3515 283.199 31.1768 283.777 31.8057C284.63 32.7321 285.846 33.2706 287.388 33.2706C289.639 33.2706 291.052 31.9252 291.052 30.4477C291.052 29.5593 290.79 28.8456 289.782 28.0686C289.132 27.5685 288.044 26.9952 286.258 26.1853C286.251 26.1822 286.244 26.1794 286.238 26.1764C283.257 24.8881 281.845 23.4493 281.845 21.2411C281.845 17.6399 285.337 15.4329 290.265 15.4329C292.19 15.4329 293.704 15.7824 294.475 16.0059Z" fill="#FFEA00"/>
</svg>
