<?xml version="1.0" encoding="UTF-8" standalone="no"?>
<!DOCTYPE svg PUBLIC "-//W3C//DTD SVG 1.1//EN" "http://www.w3.org/Graphics/SVG/1.1/DTD/svg11.dtd">
<svg width="100%" height="100%" viewBox="0 0 976 161" version="1.1" xmlns="http://www.w3.org/2000/svg" xmlns:xlink="http://www.w3.org/1999/xlink" xml:space="preserve" xmlns:serif="http://www.serif.com/" style="fill-rule:evenodd;clip-rule:evenodd;stroke-linejoin:round;stroke-miterlimit:2;">
    <g id="Artboard1" transform="matrix(1,0,0,1,-40,-371.424)">
        <rect x="40" y="371.424" width="975.768" height="160.736" style="fill:none;"/>
        <clipPath id="_clip1">
            <rect x="40" y="371.424" width="975.768" height="160.736"/>
        </clipPath>
        <g clip-path="url(#_clip1)">
            <g transform="matrix(1,0,0,1,-68.7541,202.104)">
                <path d="M205.508,231.295C205.997,230.332 206.296,229.256 206.358,228.116C207.171,213.216 210.129,202.105 210.129,202.105C210.671,200.085 210.4,197.933 209.375,196.11L208.079,193.806C206.971,191.837 205.082,190.428 202.879,189.927C202.879,189.927 186.063,186.128 172.306,186.128C153.434,186.128 138.724,191.731 128.626,201.601C118.461,211.537 112.754,225.97 112.754,244.384C112.754,261.096 117.775,274.353 126.466,283.528C135.301,292.853 148.052,298.176 164.098,298.176C187.843,298.176 201.501,292.21 201.501,292.21C202.855,291.634 204.025,290.696 204.88,289.498L206.32,287.482C207.702,285.547 208.152,283.096 207.547,280.796C206.945,278.512 206.802,275.137 206.802,270.448C206.802,264.047 206.888,259.676 207.379,256.534C207.69,254.544 208.202,253.632 209.542,252.828C212.369,251.132 213.866,247.876 213.313,244.626L212.161,237.858C211.572,234.401 208.835,231.812 205.508,231.295ZM173.076,219.013C172.231,218.86 170.292,218.544 168.706,218.544C165.039,218.544 162.108,219.053 160.019,220.853C156.25,224.1 155.394,230.225 155.394,239.344C155.394,247.319 156.252,253.717 158.158,258.502C160.054,263.261 163.137,265.904 167.698,265.904C168.892,265.904 169.986,265.764 170.93,265.568L170.93,260.911C169.035,260.95 167.286,261.018 167.286,261.018C164.443,261.128 161.756,259.719 160.229,257.319L159.221,255.735C158.188,254.112 157.775,252.171 158.056,250.268L159.784,238.604C160.366,234.681 163.733,231.776 167.698,231.776C169.368,231.776 171.37,231.792 173.582,231.813C173.08,230.632 172.865,229.332 172.974,228.024C172.974,228.024 173.234,224.858 173.234,220.768C173.234,220.204 173.145,219.481 173.076,219.013Z" style="fill:rgb(35,31,32);"/>
                <path d="M210.674,204.416L210.674,204.496L210.674,269.296C210.674,269.968 210.637,270.739 210.597,271.364L210.518,271.38C207.125,272.042 204.541,274.809 204.112,278.24L202.816,288.608C202.515,291.017 203.324,293.432 205.015,295.173C206.706,296.915 209.096,297.794 211.513,297.564C217.293,297.014 223.899,296.592 227.89,296.592C232.687,296.592 239.883,296.877 245.95,297.159C250.019,297.349 253.581,294.45 254.222,290.428L255.806,280.492C256.069,278.841 255.809,277.149 255.062,275.654L254.63,274.79C253.235,272.002 250.348,270.277 247.232,270.372L246.979,270.379C247.021,225.129 248.2,195.684 251.21,187.749C251.89,185.957 251.904,183.98 251.248,182.178L250.096,179.01C248.777,175.381 245.054,173.213 241.246,173.856C230.258,175.711 219.128,177.28 208.14,178.707C204.489,179.181 201.634,182.085 201.221,185.743L200.213,194.671C199.968,196.839 200.619,199.013 202.016,200.69L202.736,201.554C204.315,203.448 206.679,204.509 209.144,204.428C209.636,204.412 210.164,204.41 210.674,204.416Z" style="fill:rgb(35,31,32);"/>
                <path d="M284.626,298.32C297.881,298.32 308.675,293.671 316.23,285.74C323.66,277.941 328.05,266.811 328.05,253.168C328.05,240.266 324.181,230.116 317.553,223.09C310.777,215.907 300.983,211.76 288.514,211.76C275.348,211.76 264.549,216.401 256.972,224.332C249.519,232.132 245.09,243.267 245.09,256.912C245.09,269.478 249.121,279.662 255.868,286.786C262.765,294.067 272.596,298.32 284.626,298.32ZM287.074,269.504C285.769,269.504 285.707,268.052 285.191,266.265C284.137,262.616 283.698,257.592 283.698,251.008C283.698,248.231 283.878,245.927 284.335,244.069C284.594,243.012 284.73,242.16 285.634,242.16C286.932,242.16 287.011,243.598 287.524,245.358C288.574,248.958 289.01,253.906 289.01,260.368C289.01,263.26 288.835,265.649 288.383,267.572C288.129,268.651 288.001,269.504 287.074,269.504Z" style="fill:rgb(35,31,32);"/>
                <path d="M329.036,242.529C329.04,242.671 329.042,242.81 329.042,242.944C329.042,242.944 329.042,270.016 329.042,270.016C329.042,270.27 329.03,270.553 329.012,270.83C325.29,271.149 322.28,274.006 321.772,277.714L320.332,288.226C320.006,290.61 320.769,293.013 322.41,294.771C324.052,296.53 326.397,297.456 328.797,297.294C328.797,297.294 339.16,296.592 347.842,296.592C355.034,296.592 368.149,297.301 368.149,297.301C372.255,297.521 375.86,294.593 376.485,290.529L378.213,279.297C378.488,277.509 378.149,275.681 377.252,274.111L376.676,273.103C375.079,270.308 371.963,268.743 368.767,269.13C368.767,269.13 367.045,269.345 365.147,269.497C365.263,267.012 365.478,263.039 365.703,259.031C367.213,260.145 369.076,260.698 370.968,260.575L382.056,259.855C386.097,259.593 389.304,256.354 389.526,252.311C390.227,239.555 392.614,223.995 392.614,223.995C392.846,222.482 392.638,220.934 392.017,219.535L391.441,218.239C390.41,215.921 388.342,214.229 385.866,213.679C385.866,213.679 382.406,212.912 378.946,212.912C374.633,212.912 370.221,214.125 365.918,216.616C365.581,216.134 365.189,215.685 364.743,215.281L363.159,213.841C361.303,212.152 358.761,211.434 356.295,211.899C356.295,211.899 341.178,214.751 327.06,216.89C323.488,217.432 320.722,220.299 320.31,223.888L319.302,232.672C319.076,234.64 319.589,236.622 320.74,238.234L321.46,239.242C323.112,241.554 325.865,242.816 328.694,242.559C328.694,242.559 328.829,242.546 329.036,242.529Z" style="fill:rgb(35,31,32);"/>
                <path d="M396.834,215.683C394.044,216.103 391.167,216.506 388.322,216.862C384.621,217.324 381.731,220.282 381.355,223.993L380.347,233.929C380.082,236.543 381.117,239.121 383.118,240.826C385.048,242.47 387.638,243.099 390.098,242.533L390.098,270.592C390.098,270.766 390.08,270.986 390.059,271.178C389.721,271.272 389.244,271.393 388.873,271.441C385.276,271.902 382.44,274.725 381.96,278.319L380.52,289.119C380.19,291.597 381.037,294.087 382.81,295.849C384.582,297.612 387.077,298.444 389.553,298.1C389.553,298.1 400.269,296.592 407.458,296.592C413.646,296.592 424.616,297.158 424.616,297.158C428.766,297.37 432.388,294.371 432.952,290.254L434.392,279.742C434.611,278.145 434.342,276.52 433.622,275.078L433.334,274.502C431.98,271.795 429.233,270.111 426.263,270.081C426.313,255.417 426.755,243.304 427.53,234.986C427.92,230.798 428.84,226.324 428.909,225.993C430.07,223.606 429.972,220.793 428.638,218.488L427.054,215.752C425.904,213.767 423.994,212.419 421.849,211.947C425.37,208.316 427.554,203.211 427.554,197.008C427.554,191.057 425.574,186.268 422.33,182.876C419.013,179.406 414.243,177.2 408.034,177.2C401.729,177.2 396.606,179.486 392.986,183.193C389.427,186.839 387.218,191.989 387.218,198.304C387.218,204.302 389.186,209.057 392.455,212.416C393.699,213.694 395.156,214.801 396.834,215.683Z" style="fill:rgb(35,31,32);"/>
                <path d="M464.626,298.32C477.881,298.32 488.675,293.671 496.23,285.74C503.66,277.941 508.05,266.811 508.05,253.168C508.05,240.266 504.181,230.116 497.553,223.09C490.777,215.907 480.983,211.76 468.514,211.76C455.348,211.76 444.549,216.401 436.972,224.332C429.519,232.132 425.09,243.267 425.09,256.912C425.09,269.478 429.121,279.662 435.868,286.786C442.765,294.067 452.596,298.32 464.626,298.32ZM467.074,269.504C465.769,269.504 465.707,268.052 465.191,266.265C464.137,262.616 463.698,257.592 463.698,251.008C463.698,248.231 463.878,245.927 464.335,244.069C464.594,243.012 464.73,242.16 465.634,242.16C466.932,242.16 467.011,243.598 467.524,245.358C468.574,248.958 469.01,253.906 469.01,260.368C469.01,263.26 468.835,265.649 468.383,267.572C468.129,268.651 468.001,269.504 467.074,269.504Z" style="fill:rgb(35,31,32);"/>
                <path d="M505.954,242.591L505.014,271.193C505.012,271.281 505.01,271.369 505.01,271.456C505.01,278.464 507.128,284.141 510.905,288.506C516.037,294.436 524.705,298.176 537.058,298.176C538.584,298.176 541.128,297.646 544.112,295.72C545.616,294.749 547.5,293.286 549.635,291.427C549.854,291.666 550.078,291.899 550.309,292.126C554.175,295.942 560.022,298.32 568.162,298.32C568.963,298.32 569.759,298.2 570.525,297.963C574.846,296.628 579.39,293.161 583.096,289.211C587.732,284.267 591.091,278.838 591.091,278.838C592.771,276.126 592.679,272.675 590.857,270.056L588.553,266.744C586.462,263.737 582.667,262.599 579.353,263.757C579.474,252.993 580.086,242.944 581.01,235.558C581.544,231.289 581.93,228.114 582.665,226.775C584.063,224.224 583.967,221.116 582.414,218.656L580.686,215.92C578.953,213.176 575.733,211.751 572.536,212.313C572.536,212.313 557.183,215.015 543.821,216.721C543.644,216.743 543.468,216.772 543.296,216.806L542.686,215.752C540.971,212.791 537.564,211.248 534.207,211.913C534.207,211.913 519.191,214.888 505.733,216.73C502.073,217.231 499.232,220.173 498.859,223.849L497.851,233.785C497.603,236.233 498.495,238.659 500.27,240.363C501.805,241.837 503.853,242.629 505.954,242.591ZM542.087,242.341C541.677,248.355 541.458,255.292 541.458,262.096C541.458,262.905 541.602,263.898 541.72,264.573C542.204,264.506 542.686,264.343 543.17,264.119L543.17,242.445C542.805,242.435 542.443,242.4 542.087,242.341Z" style="fill:rgb(35,31,32);"/>
                <path d="M585.301,258.268C582.764,259.421 580.94,261.855 580.65,264.756C580.089,270.369 579.254,278.648 578.552,282.998C578.231,284.991 578.674,287.031 579.794,288.71L580.946,290.438C581.687,291.549 582.694,292.457 583.876,293.079C583.876,293.079 593.575,298.32 607.906,298.32C631.004,298.32 647.01,284.68 647.01,268.288C647.01,261.182 645.407,255.637 639.277,250.173C641.233,248.866 642.58,246.719 642.802,244.234C643.629,235.005 645.419,225.914 645.419,225.914C645.778,224.095 645.493,222.208 644.614,220.575L643.606,218.703C642.712,217.043 641.26,215.752 639.506,215.058C639.506,215.058 631.405,211.76 619.57,211.76C595.45,211.76 580.178,225.03 580.178,242.656C580.178,248.554 581.719,253.724 585.301,258.268Z" style="fill:rgb(35,31,32);"/>
            </g>
            <g transform="matrix(1,0,0,1,-72.7541,198.104)">
                <path d="M205.508,231.295C205.997,230.332 206.296,229.256 206.358,228.116C207.171,213.216 210.129,202.105 210.129,202.105C210.671,200.085 210.4,197.933 209.375,196.11L208.079,193.806C206.971,191.837 205.082,190.428 202.879,189.927C202.879,189.927 186.063,186.128 172.306,186.128C153.434,186.128 138.724,191.731 128.626,201.601C118.461,211.537 112.754,225.97 112.754,244.384C112.754,261.096 117.775,274.353 126.466,283.528C135.301,292.853 148.052,298.176 164.098,298.176C187.843,298.176 201.501,292.21 201.501,292.21C202.855,291.634 204.025,290.696 204.88,289.498L206.32,287.482C207.702,285.547 208.152,283.096 207.547,280.796C206.945,278.512 206.802,275.137 206.802,270.448C206.802,264.047 206.888,259.676 207.379,256.534C207.69,254.544 208.202,253.632 209.542,252.828C212.369,251.132 213.866,247.876 213.313,244.626L212.161,237.858C211.572,234.401 208.835,231.812 205.508,231.295ZM173.076,219.013C172.231,218.86 170.292,218.544 168.706,218.544C165.039,218.544 162.108,219.053 160.019,220.853C156.25,224.1 155.394,230.225 155.394,239.344C155.394,247.319 156.252,253.717 158.158,258.502C160.054,263.261 163.137,265.904 167.698,265.904C168.892,265.904 169.986,265.764 170.93,265.568L170.93,260.911C169.035,260.95 167.286,261.018 167.286,261.018C164.443,261.128 161.756,259.719 160.229,257.319L159.221,255.735C158.188,254.112 157.775,252.171 158.056,250.268L159.784,238.604C160.366,234.681 163.733,231.776 167.698,231.776C169.368,231.776 171.37,231.792 173.582,231.813C173.08,230.632 172.865,229.332 172.974,228.024C172.974,228.024 173.234,224.858 173.234,220.768C173.234,220.204 173.145,219.481 173.076,219.013Z" style="fill:rgb(38,169,226);"/>
                <path d="M210.674,204.416L210.674,204.496L210.674,269.296C210.674,269.968 210.637,270.739 210.597,271.364L210.518,271.38C207.125,272.042 204.541,274.809 204.112,278.24L202.816,288.608C202.515,291.017 203.324,293.432 205.015,295.173C206.706,296.915 209.096,297.794 211.513,297.564C217.293,297.014 223.899,296.592 227.89,296.592C232.687,296.592 239.883,296.877 245.95,297.159C250.019,297.349 253.581,294.45 254.222,290.428L255.806,280.492C256.069,278.841 255.809,277.149 255.062,275.654L254.63,274.79C253.235,272.002 250.348,270.277 247.232,270.372L246.979,270.379C247.021,225.129 248.2,195.684 251.21,187.749C251.89,185.957 251.904,183.98 251.248,182.178L250.096,179.01C248.777,175.381 245.054,173.213 241.246,173.856C230.258,175.711 219.128,177.28 208.14,178.707C204.489,179.181 201.634,182.085 201.221,185.743L200.213,194.671C199.968,196.839 200.619,199.013 202.016,200.69L202.736,201.554C204.315,203.448 206.679,204.509 209.144,204.428C209.636,204.412 210.164,204.41 210.674,204.416Z" style="fill:rgb(38,169,226);"/>
                <path d="M284.626,298.32C297.881,298.32 308.675,293.671 316.23,285.74C323.66,277.941 328.05,266.811 328.05,253.168C328.05,240.266 324.181,230.116 317.553,223.09C310.777,215.907 300.983,211.76 288.514,211.76C275.348,211.76 264.549,216.401 256.972,224.332C249.519,232.132 245.09,243.267 245.09,256.912C245.09,269.478 249.121,279.662 255.868,286.786C262.765,294.067 272.596,298.32 284.626,298.32ZM287.074,269.504C285.769,269.504 285.707,268.052 285.191,266.265C284.137,262.616 283.698,257.592 283.698,251.008C283.698,248.231 283.878,245.927 284.335,244.069C284.594,243.012 284.73,242.16 285.634,242.16C286.932,242.16 287.011,243.598 287.524,245.358C288.574,248.958 289.01,253.906 289.01,260.368C289.01,263.26 288.835,265.649 288.383,267.572C288.129,268.651 288.001,269.504 287.074,269.504Z" style="fill:rgb(38,169,226);"/>
                <path d="M329.036,242.529C329.04,242.671 329.042,242.81 329.042,242.944C329.042,242.944 329.042,270.016 329.042,270.016C329.042,270.27 329.03,270.553 329.012,270.83C325.29,271.149 322.28,274.006 321.772,277.714L320.332,288.226C320.006,290.61 320.769,293.013 322.41,294.771C324.052,296.53 326.397,297.456 328.797,297.294C328.797,297.294 339.16,296.592 347.842,296.592C355.034,296.592 368.149,297.301 368.149,297.301C372.255,297.521 375.86,294.593 376.485,290.529L378.213,279.297C378.488,277.509 378.149,275.681 377.252,274.111L376.676,273.103C375.079,270.308 371.963,268.743 368.767,269.13C368.767,269.13 367.045,269.345 365.147,269.497C365.263,267.012 365.478,263.039 365.703,259.031C367.213,260.145 369.076,260.698 370.968,260.575L382.056,259.855C386.097,259.593 389.304,256.354 389.526,252.311C390.227,239.555 392.614,223.995 392.614,223.995C392.846,222.482 392.638,220.934 392.017,219.535L391.441,218.239C390.41,215.921 388.342,214.229 385.866,213.679C385.866,213.679 382.406,212.912 378.946,212.912C374.633,212.912 370.221,214.125 365.918,216.616C365.581,216.134 365.189,215.685 364.743,215.281L363.159,213.841C361.303,212.152 358.761,211.434 356.295,211.899C356.295,211.899 341.178,214.751 327.06,216.89C323.488,217.432 320.722,220.299 320.31,223.888L319.302,232.672C319.076,234.64 319.589,236.622 320.74,238.234L321.46,239.242C323.112,241.554 325.865,242.816 328.694,242.559C328.694,242.559 328.829,242.546 329.036,242.529Z" style="fill:rgb(38,169,226);"/>
                <path d="M396.834,215.683C394.044,216.103 391.167,216.506 388.322,216.862C384.621,217.324 381.731,220.282 381.355,223.993L380.347,233.929C380.082,236.543 381.117,239.121 383.118,240.826C385.048,242.47 387.638,243.099 390.098,242.533L390.098,270.592C390.098,270.766 390.08,270.986 390.059,271.178C389.721,271.272 389.244,271.393 388.873,271.441C385.276,271.902 382.44,274.725 381.96,278.319L380.52,289.119C380.19,291.597 381.037,294.087 382.81,295.849C384.582,297.612 387.077,298.444 389.553,298.1C389.553,298.1 400.269,296.592 407.458,296.592C413.646,296.592 424.616,297.158 424.616,297.158C428.766,297.37 432.388,294.371 432.952,290.254L434.392,279.742C434.611,278.145 434.342,276.52 433.622,275.078L433.334,274.502C431.98,271.795 429.233,270.111 426.263,270.081C426.313,255.417 426.755,243.304 427.53,234.986C427.92,230.798 428.84,226.324 428.909,225.993C430.07,223.606 429.972,220.793 428.638,218.488L427.054,215.752C425.904,213.767 423.994,212.419 421.849,211.947C425.37,208.316 427.554,203.211 427.554,197.008C427.554,191.057 425.574,186.268 422.33,182.876C419.013,179.406 414.243,177.2 408.034,177.2C401.729,177.2 396.606,179.486 392.986,183.193C389.427,186.839 387.218,191.989 387.218,198.304C387.218,204.302 389.186,209.057 392.455,212.416C393.699,213.694 395.156,214.801 396.834,215.683Z" style="fill:rgb(38,169,226);"/>
                <path d="M464.626,298.32C477.881,298.32 488.675,293.671 496.23,285.74C503.66,277.941 508.05,266.811 508.05,253.168C508.05,240.266 504.181,230.116 497.553,223.09C490.777,215.907 480.983,211.76 468.514,211.76C455.348,211.76 444.549,216.401 436.972,224.332C429.519,232.132 425.09,243.267 425.09,256.912C425.09,269.478 429.121,279.662 435.868,286.786C442.765,294.067 452.596,298.32 464.626,298.32ZM467.074,269.504C465.769,269.504 465.707,268.052 465.191,266.265C464.137,262.616 463.698,257.592 463.698,251.008C463.698,248.231 463.878,245.927 464.335,244.069C464.594,243.012 464.73,242.16 465.634,242.16C466.932,242.16 467.011,243.598 467.524,245.358C468.574,248.958 469.01,253.906 469.01,260.368C469.01,263.26 468.835,265.649 468.383,267.572C468.129,268.651 468.001,269.504 467.074,269.504Z" style="fill:rgb(38,169,226);"/>
                <path d="M505.954,242.591L505.014,271.193C505.012,271.281 505.01,271.369 505.01,271.456C505.01,278.464 507.128,284.141 510.905,288.506C516.037,294.436 524.705,298.176 537.058,298.176C538.584,298.176 541.128,297.646 544.112,295.72C545.616,294.749 547.5,293.286 549.635,291.427C549.854,291.666 550.078,291.899 550.309,292.126C554.175,295.942 560.022,298.32 568.162,298.32C568.963,298.32 569.759,298.2 570.525,297.963C574.846,296.628 579.39,293.161 583.096,289.211C587.732,284.267 591.091,278.838 591.091,278.838C592.771,276.126 592.679,272.675 590.857,270.056L588.553,266.744C586.462,263.737 582.667,262.599 579.353,263.757C579.474,252.993 580.086,242.944 581.01,235.558C581.544,231.289 581.93,228.114 582.665,226.775C584.063,224.224 583.967,221.116 582.414,218.656L580.686,215.92C578.953,213.176 575.733,211.751 572.536,212.313C572.536,212.313 557.183,215.015 543.821,216.721C543.644,216.743 543.468,216.772 543.296,216.806L542.686,215.752C540.971,212.791 537.564,211.248 534.207,211.913C534.207,211.913 519.191,214.888 505.733,216.73C502.073,217.231 499.232,220.173 498.859,223.849L497.851,233.785C497.603,236.233 498.495,238.659 500.27,240.363C501.805,241.837 503.853,242.629 505.954,242.591ZM542.087,242.341C541.677,248.355 541.458,255.292 541.458,262.096C541.458,262.905 541.602,263.898 541.72,264.573C542.204,264.506 542.686,264.343 543.17,264.119L543.17,242.445C542.805,242.435 542.443,242.4 542.087,242.341Z" style="fill:rgb(38,169,226);"/>
                <path d="M585.301,258.268C582.764,259.421 580.94,261.855 580.65,264.756C580.089,270.369 579.254,278.648 578.552,282.998C578.231,284.991 578.674,287.031 579.794,288.71L580.946,290.438C581.687,291.549 582.694,292.457 583.876,293.079C583.876,293.079 593.575,298.32 607.906,298.32C631.004,298.32 647.01,284.68 647.01,268.288C647.01,261.182 645.407,255.637 639.277,250.173C641.233,248.866 642.58,246.719 642.802,244.234C643.629,235.005 645.419,225.914 645.419,225.914C645.778,224.095 645.493,222.208 644.614,220.575L643.606,218.703C642.712,217.043 641.26,215.752 639.506,215.058C639.506,215.058 631.405,211.76 619.57,211.76C595.45,211.76 580.178,225.03 580.178,242.656C580.178,248.554 581.719,253.724 585.301,258.268Z" style="fill:rgb(38,169,226);"/>
            </g>
            <g transform="matrix(1,0,0,1,-72.7541,198.104)">
                <path d="M164.098,290.176C185.842,290.176 198.37,284.848 198.37,284.848L199.81,282.832C199.09,280.096 198.802,276.064 198.802,270.448C198.802,253.024 199.666,249.424 205.426,245.968L204.274,239.2C204.274,239.2 196.066,239.92 188.578,239.92C180.802,239.92 172.738,239.776 167.698,239.776L165.97,251.44L166.978,253.024C166.978,253.024 170.722,252.88 173.314,252.88C177.778,252.88 178.93,254.176 178.93,259.36L178.93,271.024C178.93,271.024 174.898,273.904 167.698,273.904C154.45,273.904 147.394,262.384 147.394,239.344C147.394,218.896 153.874,210.544 168.706,210.544C177.922,210.544 181.234,213.136 181.234,220.768C181.234,225.232 180.946,228.688 180.946,228.688L198.37,227.68C199.234,211.84 202.402,200.032 202.402,200.032L201.106,197.728C201.106,197.728 185.266,194.128 172.306,194.128C139.474,194.128 120.754,212.56 120.754,244.384C120.754,273.04 137.026,290.176 164.098,290.176Z" style="fill:rgb(255,221,24);fill-rule:nonzero;"/>
                <path d="M210.754,289.6C216.802,289.024 223.714,288.592 227.89,288.592C232.786,288.592 240.13,288.88 246.322,289.168L247.906,279.232L247.474,278.368L242.722,278.512C239.986,278.512 238.978,277.072 238.978,272.896C238.978,224.656 240.562,193.264 243.73,184.912L242.578,181.744C231.49,183.616 220.258,185.2 209.17,186.64L208.162,195.568L208.882,196.432C217.666,196.144 218.674,197.152 218.674,204.496L218.674,269.296C218.674,275.776 217.954,278.08 212.05,279.232L210.754,289.6Z" style="fill:rgb(255,221,24);fill-rule:nonzero;"/>
                <path d="M284.626,290.32C306.226,290.32 320.05,275.776 320.05,253.168C320.05,232.144 308.386,219.76 288.514,219.76C267.058,219.76 253.09,234.304 253.09,256.912C253.09,277.36 265.474,290.32 284.626,290.32ZM287.074,277.504C279.442,277.504 275.698,269.872 275.698,251.008C275.698,239.2 278.866,234.16 285.634,234.16C293.266,234.16 297.01,241.792 297.01,260.368C297.01,272.464 293.986,277.504 287.074,277.504Z" style="fill:rgb(255,221,24);fill-rule:nonzero;"/>
                <path d="M329.698,278.8L328.258,289.312C328.258,289.312 338.914,288.592 347.842,288.592C355.186,288.592 368.578,289.312 368.578,289.312L370.306,278.08L369.73,277.072C369.73,277.072 364.978,277.648 362.098,277.648C358.354,277.648 357.058,276.064 357.058,271.888C357.058,269.584 358.498,244.96 358.498,244.96C360.946,242.08 363.826,240.352 366.274,240.352C369.586,240.352 370.45,242.656 370.45,252.592L381.538,251.872C382.258,238.768 384.706,222.784 384.706,222.784L384.13,221.488C384.13,221.488 381.538,220.912 378.946,220.912C371.89,220.912 364.834,225.664 358.642,234.592L357.634,234.016C357.922,228.112 359.362,221.2 359.362,221.2L357.778,219.76C357.778,219.76 342.514,222.64 328.258,224.8L327.25,233.584L327.97,234.592C327.97,234.592 329.554,234.448 330.562,234.448C335.746,234.448 337.042,236.176 337.042,242.944L337.042,270.016C337.042,276.496 335.314,278.368 329.698,278.8Z" style="fill:rgb(255,221,24);fill-rule:nonzero;"/>
                <path d="M406.882,209.968C414.514,209.968 419.554,204.784 419.554,197.008C419.554,189.808 415.378,185.2 408.034,185.2C400.258,185.2 395.218,190.384 395.218,198.304C395.218,205.504 399.25,209.968 406.882,209.968ZM388.45,290.176C388.45,290.176 399.826,288.592 407.458,288.592C413.794,288.592 425.026,289.168 425.026,289.168L426.466,278.656L426.178,278.08C426.178,278.08 423.73,278.368 422.29,278.368C419.266,278.368 418.258,276.928 418.258,272.896C418.258,245.824 419.554,226.672 421.714,222.496L420.13,219.76C420.13,219.76 404.29,222.928 389.314,224.8L388.306,234.736C388.306,234.736 390.466,234.16 391.618,234.16C396.658,234.16 398.098,236.032 398.098,242.368L398.098,270.592C398.098,275.92 395.506,278.656 389.89,279.376L388.45,290.176Z" style="fill:rgb(255,221,24);fill-rule:nonzero;"/>
                <path d="M464.626,290.32C486.226,290.32 500.05,275.776 500.05,253.168C500.05,232.144 488.386,219.76 468.514,219.76C447.058,219.76 433.09,234.304 433.09,256.912C433.09,277.36 445.474,290.32 464.626,290.32ZM467.074,277.504C459.442,277.504 455.698,269.872 455.698,251.008C455.698,239.2 458.866,234.16 465.634,234.16C473.266,234.16 477.01,241.792 477.01,260.368C477.01,272.464 473.986,277.504 467.074,277.504Z" style="fill:rgb(255,221,24);fill-rule:nonzero;"/>
                <path d="M514.018,240.784L513.01,271.456C513.01,283.552 521.362,290.176 537.058,290.176C539.074,290.176 544.69,285.568 551.314,278.8L552.61,279.52C553.762,286.72 558.946,290.32 568.162,290.32C576.082,287.872 584.29,274.624 584.29,274.624L581.986,271.312C581.986,271.312 579.106,273.184 576.082,273.184C573.202,273.184 571.33,271.024 571.33,267.712C571.33,246.688 573.202,227.392 575.65,222.928L573.922,220.192C573.922,220.192 558.37,222.928 544.834,224.656L543.394,234.448L545.41,234.448C550.162,234.592 551.17,235.6 551.17,241.072L551.17,268.576C547.858,270.592 544.402,272.608 541.234,272.608C536.05,272.608 533.458,269.296 533.458,262.096C533.458,244.96 535.186,227.104 537.346,222.496L535.762,219.76C535.762,219.76 520.498,222.784 506.818,224.656L505.81,234.592C505.81,234.592 507.826,234.304 509.554,234.304C512.866,234.304 514.018,236.032 514.018,240.784Z" style="fill:rgb(255,221,24);fill-rule:nonzero;"/>
                <path d="M607.906,290.32C625.762,290.32 639.01,280.96 639.01,268.288C639.01,259.072 634.546,254.176 617.266,246.4C611.218,243.664 608.77,241.216 608.77,238.048C608.77,234.88 611.794,232.72 616.258,232.72C622.306,232.72 625.186,235.744 625.33,242.368C625.33,242.944 625.186,244.096 625.186,244.096L634.834,243.52C635.698,233.872 637.57,224.368 637.57,224.368L636.562,222.496C636.562,222.496 629.65,219.76 619.57,219.76C600.85,219.76 588.178,228.976 588.178,242.656C588.178,251.296 593.218,257.344 604.882,262.384C615.682,267.28 618.13,269.152 618.13,272.608C618.13,275.632 614.818,277.792 610.21,277.792C602.722,277.792 598.258,272.896 598.114,264.688L588.61,265.552C588.034,271.312 587.17,279.808 586.45,284.272L587.602,286C587.602,286 595.81,290.32 607.906,290.32Z" style="fill:rgb(255,221,24);fill-rule:nonzero;"/>
            </g>
            <g transform="matrix(1,0,0,1,-72.7541,198.104)">
                <path d="M198.011,201.16C197.143,204.934 195.431,213.331 194.612,223.891C194.612,223.891 185.174,224.437 185.174,224.437C185.209,223.339 185.234,222.096 185.234,220.768C185.234,216.614 184.319,213.609 182.651,211.437C180.241,208.297 175.954,206.544 168.706,206.544C161.639,206.544 156.212,208.293 152.186,211.762C146.462,216.694 143.394,225.494 143.394,239.344C143.394,265.544 152.633,277.904 167.698,277.904C176.412,277.904 181.255,274.279 181.255,274.279C182.306,273.528 182.93,272.316 182.93,271.024L182.93,259.36C182.93,255.408 182.103,253.032 180.813,251.55C179.37,249.892 177.122,248.88 173.314,248.88C172.409,248.88 171.367,248.897 170.387,248.92L171.147,243.792C176.029,243.829 182.395,243.92 188.578,243.92C193.057,243.92 197.787,243.668 200.942,243.46C200.942,243.46 201.05,244.096 201.05,244.096C198.038,246.415 196.373,249.239 195.523,254.682C194.966,258.243 194.802,263.194 194.802,270.448C194.802,275.173 195.02,278.859 195.482,281.657C191.843,282.919 180.826,286.176 164.098,286.176C151.817,286.176 141.939,282.412 135.178,275.275C128.346,268.063 124.754,257.521 124.754,244.384C124.754,229.723 128.921,218.094 137.014,210.183C145.141,202.239 157.118,198.128 172.306,198.128C181.983,198.128 193.317,200.206 198.011,201.16Z" style="fill:rgb(255,234,0);"/>
                <path d="M239.152,186.365C236.461,197.887 234.978,228.305 234.978,272.896C234.978,276.995 236.064,279.339 237.505,280.674C238.747,281.823 240.409,282.512 242.722,282.512L243.335,282.495L242.934,285.013C237.589,284.784 231.919,284.592 227.89,284.592C224.737,284.592 220.058,284.831 215.336,285.193L215.686,282.394C217.515,281.746 218.827,280.899 219.809,279.883C221.842,277.779 222.674,274.627 222.674,269.296C222.674,269.296 222.674,204.496 222.674,204.496C222.674,199.097 221.63,196.207 219.645,194.539C218.268,193.383 216.092,192.656 212.538,192.46L212.794,190.2C221.554,189.042 230.387,187.787 239.152,186.365Z" style="fill:rgb(255,234,0);"/>
                <path d="M284.626,286.32C276.277,286.32 269.367,283.587 264.58,278.533C259.719,273.401 257.09,265.966 257.09,256.912C257.09,246.779 260.114,238.414 265.648,232.621C271.121,226.894 279.005,223.76 288.514,223.76C297.184,223.76 304.113,226.33 308.825,231.325C313.611,236.399 316.05,243.85 316.05,253.168C316.05,263.303 313.061,271.669 307.542,277.463C302.085,283.191 294.199,286.32 284.626,286.32ZM287.074,281.504C290.062,281.504 292.523,280.769 294.536,279.384C298.524,276.639 301.01,270.726 301.01,260.368C301.01,250.317 299.881,243.244 297.836,238.666C295.165,232.688 291.027,230.16 285.634,230.16C276.957,230.16 271.698,235.869 271.698,251.008C271.698,261.2 272.825,268.341 274.867,272.95C277.538,278.98 281.681,281.504 287.074,281.504Z" style="fill:rgb(255,234,0);"/>
                <path d="M354.719,224.393C354.289,227.024 353.798,230.569 353.639,233.821C353.566,235.325 354.343,236.742 355.65,237.489L356.658,238.065C357.751,238.69 359.025,238.744 360.121,238.309C358.504,239.299 356.905,240.658 355.45,242.37C354.888,243.032 354.556,243.859 354.505,244.727C354.505,244.727 353.058,269.564 353.058,271.888C353.058,275.241 353.874,277.473 355.145,278.947C356.573,280.602 358.724,281.648 362.098,281.648C363.168,281.648 364.481,281.574 365.736,281.477L365.173,285.138C360.636,284.923 352.848,284.592 347.842,284.592C342.639,284.592 336.857,284.833 332.881,285.038L333.257,282.293C335.639,281.707 337.313,280.689 338.522,279.269C340.111,277.402 341.042,274.558 341.042,270.016L341.042,242.944C341.042,237.046 339.688,233.984 337.52,232.318C336.152,231.267 334.278,230.612 331.633,230.475L331.884,228.288C340.882,226.878 349.828,225.285 354.719,224.393ZM380.346,224.972C379.698,229.565 378.435,239.107 377.773,248.108C377.773,248.108 374.366,248.329 374.366,248.329C374.223,245.119 373.897,242.917 373.384,241.436C372.72,239.521 371.723,238.34 370.571,237.558C369.416,236.774 368.022,236.352 366.274,236.352C364.66,236.352 362.871,236.832 361.074,237.769C361.396,237.522 361.686,237.222 361.929,236.872C367.189,229.287 372.952,224.912 378.946,224.912C379.42,224.912 379.894,224.935 380.346,224.972Z" style="fill:rgb(255,234,0);"/>
                <path d="M416.931,224.447C416.606,225.868 416.304,227.591 416.047,229.6C414.912,238.473 414.258,253.721 414.258,272.896C414.258,276.965 415.387,279.303 416.974,280.651C418.15,281.651 419.728,282.298 421.921,282.362L421.56,285.001C417.676,284.83 411.555,284.592 407.458,284.592C402.961,284.592 397.201,285.124 393.099,285.579L393.481,282.708C395.847,282.006 397.666,280.891 399.018,279.448C400.984,277.351 402.098,274.472 402.098,270.592L402.098,242.368C402.098,236.771 400.717,233.734 398.503,232.045C397.144,231.007 395.311,230.347 392.787,230.195L392.974,228.357C402.452,227.075 411.812,225.405 416.931,224.447ZM406.882,205.968C404.348,205.968 402.357,205.385 401.055,204.046C399.745,202.701 399.218,200.707 399.218,198.304C399.218,195.521 400.004,193.183 401.572,191.577C403.111,190.001 405.354,189.2 408.034,189.2C410.439,189.2 412.372,189.825 413.657,191.168C414.979,192.551 415.554,194.583 415.554,197.008C415.554,199.726 414.766,202.024 413.218,203.61C411.7,205.164 409.497,205.968 406.882,205.968Z" style="fill:rgb(255,234,0);"/>
                <path d="M464.626,286.32C456.277,286.32 449.367,283.587 444.58,278.533C439.719,273.401 437.09,265.966 437.09,256.912C437.09,246.779 440.114,238.414 445.648,232.621C451.121,226.894 459.005,223.76 468.514,223.76C477.184,223.76 484.113,226.33 488.825,231.325C493.611,236.399 496.05,243.85 496.05,253.168C496.05,263.303 493.061,271.669 487.542,277.463C482.085,283.191 474.199,286.32 464.626,286.32ZM467.074,281.504C470.062,281.504 472.523,280.769 474.536,279.384C478.524,276.639 481.01,270.726 481.01,260.368C481.01,250.317 479.881,243.244 477.836,238.666C475.165,232.688 471.027,230.16 465.634,230.16C456.957,230.16 451.698,235.869 451.698,251.008C451.698,261.2 452.825,268.341 454.867,272.95C457.538,278.98 461.681,281.504 467.074,281.504Z" style="fill:rgb(255,234,0);"/>
                <path d="M532.589,224.441C530.836,232.001 529.458,247.299 529.458,262.096C529.458,267.935 531.09,271.759 533.612,273.982C535.528,275.671 538.041,276.608 541.234,276.608C545.037,276.608 549.274,274.413 553.25,271.993C554.442,271.267 555.17,269.972 555.17,268.576L555.17,241.072C555.17,236.916 554.35,234.557 553.065,233.108C551.993,231.899 550.435,231.049 547.993,230.667L548.352,228.228C556.96,227.065 565.854,225.616 570.766,224.79C570.38,226.233 570.013,227.967 569.69,229.953C568.275,238.63 567.33,252.74 567.33,267.712C567.33,273.606 570.957,277.184 576.082,277.184C576.62,277.184 577.154,277.142 577.677,277.067C576.718,278.308 575.586,279.676 574.343,281.001C572.273,283.208 569.921,285.378 567.514,286.312C561.193,286.173 557.371,283.956 556.56,278.888C556.366,277.676 555.626,276.62 554.553,276.024L553.257,275.304C551.682,274.428 549.716,274.715 548.455,276.002C543.499,281.067 537.429,285.57 536.605,286.174C528.884,286.11 523.22,284.398 519.979,280.653C517.969,278.331 517.023,275.252 517.01,271.531C517.01,271.518 518.016,240.916 518.016,240.916C518.017,240.872 518.018,240.828 518.018,240.784C518.018,236.345 516.88,233.745 515.25,232.259C514.038,231.156 512.439,230.449 510.264,230.324L510.481,228.177C519.041,226.925 527.722,225.355 532.589,224.441Z" style="fill:rgb(255,234,0);"/>
                <path d="M633.268,225.624C632.763,228.44 631.854,233.852 631.197,239.73L629.153,239.852C628.728,236.551 627.584,234.082 625.918,232.316C623.762,230.03 620.621,228.72 616.258,228.72C609.07,228.72 604.77,232.947 604.77,238.048C604.77,242.349 607.407,246.33 615.617,250.045C615.62,250.046 615.622,250.047 615.625,250.048C630.533,256.756 635.01,260.337 635.01,268.288C635.01,273.337 632.261,277.664 627.843,280.791C622.881,284.304 615.898,286.32 607.906,286.32C599.542,286.32 593.219,284.08 590.681,283.012C591.212,279.211 591.789,273.842 592.259,269.237C592.259,269.237 594.563,269.027 594.563,269.027C595.224,272.295 596.582,274.98 598.464,277.026C601.237,280.04 605.195,281.792 610.21,281.792C617.535,281.792 622.13,277.415 622.13,272.608C622.13,269.718 621.279,267.396 617.998,264.868C615.886,263.241 612.345,261.376 606.534,258.741C606.512,258.731 606.49,258.722 606.469,258.712C596.77,254.521 592.178,249.84 592.178,242.656C592.178,230.94 603.537,223.76 619.57,223.76C625.833,223.76 630.76,224.897 633.268,225.624Z" style="fill:rgb(255,234,0);"/>
            </g>
            <g transform="matrix(1,0,0,1,426.502,108.296)">
                <g transform="matrix(1,0,0,1,0,-2)">
                    <path d="M255.127,382.291C267.927,372.008 275.922,355.555 275.922,335.632C275.922,318.69 271.191,305.547 262.824,296.531C254.274,287.315 241.788,282.128 225.586,282.128C208.377,282.128 194.675,287.928 185.184,298.073C175.862,308.037 170.498,322.403 170.498,340.384C170.498,357.203 175.274,370.451 183.599,379.593C191.598,388.375 202.965,393.605 217.336,394.252C249.486,422.083 258.448,426.288 271.666,426.288C273.833,426.288 277.973,424.96 282.419,422.372C289.404,418.306 298.27,411.539 298.27,411.539C300.795,409.608 301.937,406.366 301.18,403.278L299.308,395.646C298.888,393.933 297.913,392.407 296.536,391.305L295.096,390.153C293.171,388.613 290.643,388.047 288.245,388.618C288.245,388.618 283.091,389.84 277.57,389.84C271.02,389.84 263.443,387.138 255.127,382.291ZM223.714,363.488C220.681,363.488 218.518,361.82 216.975,358.769C214.262,353.407 213.138,345.212 213.138,334.048C213.138,327.92 213.786,323.046 215.298,319.426C216.627,316.247 218.815,314.544 221.986,314.544C226.169,314.544 228.713,317.273 230.387,322.144C232.195,327.409 232.994,334.552 232.994,343.696C232.994,349.818 232.327,354.726 230.778,358.387C229.378,361.697 227.06,363.488 223.714,363.488Z" style="fill:rgb(35,31,32);"/>
                </g>
                <g transform="matrix(1,0,0,1,0,-2)">
                    <path d="M273.25,338.591L272.31,367.193C272.308,367.281 272.306,367.369 272.306,367.456C272.306,374.464 274.424,380.141 278.201,384.506C283.333,390.436 292.001,394.176 304.354,394.176C305.88,394.176 308.424,393.646 311.408,391.72C312.912,390.749 314.796,389.286 316.931,387.427C317.15,387.666 317.374,387.899 317.605,388.126C321.471,391.942 327.318,394.32 335.458,394.32C336.259,394.32 337.055,394.2 337.821,393.963C342.142,392.628 346.686,389.161 350.392,385.211C355.028,380.267 358.387,374.838 358.387,374.838C360.067,372.126 359.975,368.675 358.153,366.056L355.849,362.744C353.758,359.737 349.963,358.599 346.649,359.757C346.77,348.993 347.382,338.944 348.306,331.558C348.84,327.289 349.226,324.114 349.961,322.775C351.359,320.224 351.263,317.116 349.71,314.656L347.982,311.92C346.249,309.176 343.029,307.751 339.832,308.313C339.832,308.313 324.479,311.015 311.117,312.721C310.94,312.743 310.764,312.772 310.592,312.806L309.982,311.752C308.267,308.791 304.86,307.248 301.503,307.913C301.503,307.913 286.487,310.888 273.029,312.73C269.369,313.231 266.528,316.173 266.155,319.849L265.147,329.785C264.899,332.233 265.791,334.659 267.566,336.363C269.101,337.837 271.149,338.629 273.25,338.591ZM309.383,338.341C308.973,344.355 308.754,351.292 308.754,358.096C308.754,358.905 308.898,359.898 309.016,360.573C309.5,360.506 309.982,360.343 310.466,360.119L310.466,338.445C310.101,338.435 309.739,338.4 309.383,338.341Z" style="fill:rgb(35,31,32);"/>
                </g>
                <g transform="matrix(1,0,0,1,0,-2)">
                    <path d="M415.144,359.802C415.939,359.453 416.677,358.974 417.328,358.377L419.056,356.793C420.248,355.7 421.081,354.271 421.445,352.695C421.966,350.44 422.658,346.102 422.658,342.112C422.658,330.79 419.506,322.435 414.007,316.774C408.436,311.039 400.214,307.76 389.026,307.76C363.665,307.76 345.89,326.271 345.89,352.336C345.89,365.433 349.975,375.774 357.054,382.942C364.158,390.134 374.444,394.32 387.586,394.32C397.458,394.32 411.058,387.195 418.377,381.579C421.012,379.556 422.123,376.115 421.169,372.933L418.577,364.293C418.014,362.417 416.786,360.825 415.144,359.802ZM401.922,360.48L386.898,360.48C388.348,361.751 390.385,362.192 392.77,362.192C395.465,362.192 398.55,361.626 401.922,360.48Z" style="fill:rgb(35,31,32);"/>
                </g>
                <g transform="matrix(1,0,0,1,0,-2)">
                    <path d="M420.277,354.268C417.74,355.421 415.916,357.855 415.626,360.756C415.065,366.369 414.23,374.648 413.528,378.998C413.207,380.991 413.65,383.031 414.77,384.71L415.922,386.438C416.663,387.549 417.67,388.457 418.852,389.079C418.852,389.079 428.551,394.32 442.882,394.32C465.98,394.32 481.986,380.68 481.986,364.288C481.986,357.182 480.383,351.637 474.253,346.173C476.209,344.866 477.556,342.719 477.778,340.234C478.605,331.005 480.395,321.914 480.395,321.914C480.754,320.095 480.469,318.208 479.59,316.575L478.582,314.703C477.688,313.043 476.236,311.752 474.482,311.058C474.482,311.058 466.381,307.76 454.546,307.76C430.426,307.76 415.154,321.03 415.154,338.656C415.154,344.554 416.695,349.724 420.277,354.268Z" style="fill:rgb(35,31,32);"/>
                </g>
                <g transform="matrix(1,0,0,1,0,-2)">
                    <path d="M478.802,338.007L478.802,338.08L478.802,368.464C478.802,377.201 481.669,383.572 486.669,387.914C491.275,391.915 498.084,394.32 507.394,394.32C509.984,394.32 513.986,392.9 517.99,390.134C523.972,386.001 530.795,379.129 530.795,379.129C533.014,376.885 533.706,373.546 532.562,370.605L530.546,365.421C529.772,363.431 528.235,361.833 526.277,360.982C524.318,360.132 522.101,360.099 520.119,360.892C520.119,360.892 517.475,362.027 515.231,362.048C515.114,361.349 514.962,360.269 514.962,359.392C514.962,351.635 515.094,344.807 515.314,338.816C515.314,338.816 522.427,339.021 522.427,339.021C526.489,339.138 529.994,336.192 530.576,332.17L532.16,321.226C532.521,318.729 531.683,316.207 529.899,314.423L529.179,313.703C527.622,312.146 525.491,311.299 523.289,311.364L517.804,311.523C518.157,309.228 518.407,307.969 518.407,307.969C519.086,304.573 517.503,301.125 514.484,299.428L509.876,296.836C507.104,295.276 503.671,295.507 501.132,297.424C501.132,297.424 488.315,307.117 475.083,313.255C472.571,314.421 470.84,316.803 470.508,319.554L469.5,327.906C469.138,330.902 470.493,333.846 473.004,335.521L474.732,336.673C475.943,337.48 477.35,337.941 478.802,338.007Z" style="fill:rgb(35,31,32);"/>
                </g>
                <g transform="matrix(1,0,0,1,0,-2)">
                    <path d="M527.557,354.268C525.02,355.421 523.196,357.855 522.906,360.756C522.345,366.369 521.51,374.648 520.808,378.998C520.487,380.991 520.93,383.031 522.05,384.71L523.202,386.438C523.943,387.549 524.95,388.457 526.132,389.079C526.132,389.079 535.831,394.32 550.162,394.32C573.26,394.32 589.266,380.68 589.266,364.288C589.266,357.182 587.663,351.637 581.533,346.173C583.489,344.866 584.836,342.719 585.058,340.234C585.885,331.005 587.675,321.914 587.675,321.914C588.034,320.095 587.749,318.208 586.87,316.575L585.862,314.703C584.968,313.043 583.516,311.752 581.762,311.058C581.762,311.058 573.661,307.76 561.826,307.76C537.706,307.76 522.434,321.03 522.434,338.656C522.434,344.554 523.975,349.724 527.557,354.268Z" style="fill:rgb(35,31,32);"/>
                </g>
            </g>
            <g transform="matrix(1,0,0,1,422.502,104.296)">
                <g transform="matrix(1,0,0,1,0,-2)">
                    <path d="M255.127,382.291C267.927,372.008 275.922,355.555 275.922,335.632C275.922,318.69 271.191,305.547 262.824,296.531C254.274,287.315 241.788,282.128 225.586,282.128C208.377,282.128 194.675,287.928 185.184,298.073C175.862,308.037 170.498,322.403 170.498,340.384C170.498,357.203 175.274,370.451 183.599,379.593C191.598,388.375 202.965,393.605 217.336,394.252C249.486,422.083 258.448,426.288 271.666,426.288C273.833,426.288 277.973,424.96 282.419,422.372C289.404,418.306 298.27,411.539 298.27,411.539C300.795,409.608 301.937,406.366 301.18,403.278L299.308,395.646C298.888,393.933 297.913,392.407 296.536,391.305L295.096,390.153C293.171,388.613 290.643,388.047 288.245,388.618C288.245,388.618 283.091,389.84 277.57,389.84C271.02,389.84 263.443,387.138 255.127,382.291ZM223.714,363.488C220.681,363.488 218.518,361.82 216.975,358.769C214.262,353.407 213.138,345.212 213.138,334.048C213.138,327.92 213.786,323.046 215.298,319.426C216.627,316.247 218.815,314.544 221.986,314.544C226.169,314.544 228.713,317.273 230.387,322.144C232.195,327.409 232.994,334.552 232.994,343.696C232.994,349.818 232.327,354.726 230.778,358.387C229.378,361.697 227.06,363.488 223.714,363.488Z" style="fill:rgb(38,169,226);"/>
                </g>
                <g transform="matrix(1,0,0,1,0,-2)">
                    <path d="M273.25,338.591L272.31,367.193C272.308,367.281 272.306,367.369 272.306,367.456C272.306,374.464 274.424,380.141 278.201,384.506C283.333,390.436 292.001,394.176 304.354,394.176C305.88,394.176 308.424,393.646 311.408,391.72C312.912,390.749 314.796,389.286 316.931,387.427C317.15,387.666 317.374,387.899 317.605,388.126C321.471,391.942 327.318,394.32 335.458,394.32C336.259,394.32 337.055,394.2 337.821,393.963C342.142,392.628 346.686,389.161 350.392,385.211C355.028,380.267 358.387,374.838 358.387,374.838C360.067,372.126 359.975,368.675 358.153,366.056L355.849,362.744C353.758,359.737 349.963,358.599 346.649,359.757C346.77,348.993 347.382,338.944 348.306,331.558C348.84,327.289 349.226,324.114 349.961,322.775C351.359,320.224 351.263,317.116 349.71,314.656L347.982,311.92C346.249,309.176 343.029,307.751 339.832,308.313C339.832,308.313 324.479,311.015 311.117,312.721C310.94,312.743 310.764,312.772 310.592,312.806L309.982,311.752C308.267,308.791 304.86,307.248 301.503,307.913C301.503,307.913 286.487,310.888 273.029,312.73C269.369,313.231 266.528,316.173 266.155,319.849L265.147,329.785C264.899,332.233 265.791,334.659 267.566,336.363C269.101,337.837 271.149,338.629 273.25,338.591ZM309.383,338.341C308.973,344.355 308.754,351.292 308.754,358.096C308.754,358.905 308.898,359.898 309.016,360.573C309.5,360.506 309.982,360.343 310.466,360.119L310.466,338.445C310.101,338.435 309.739,338.4 309.383,338.341Z" style="fill:rgb(38,169,226);"/>
                </g>
                <g transform="matrix(1,0,0,1,0,-2)">
                    <path d="M415.144,359.802C415.939,359.453 416.677,358.974 417.328,358.377L419.056,356.793C420.248,355.7 421.081,354.271 421.445,352.695C421.966,350.44 422.658,346.102 422.658,342.112C422.658,330.79 419.506,322.435 414.007,316.774C408.436,311.039 400.214,307.76 389.026,307.76C363.665,307.76 345.89,326.271 345.89,352.336C345.89,365.433 349.975,375.774 357.054,382.942C364.158,390.134 374.444,394.32 387.586,394.32C397.458,394.32 411.058,387.195 418.377,381.579C421.012,379.556 422.123,376.115 421.169,372.933L418.577,364.293C418.014,362.417 416.786,360.825 415.144,359.802ZM401.922,360.48L386.898,360.48C388.348,361.751 390.385,362.192 392.77,362.192C395.465,362.192 398.55,361.626 401.922,360.48Z" style="fill:rgb(38,169,226);"/>
                </g>
                <g transform="matrix(1,0,0,1,0,-2)">
                    <path d="M420.277,354.268C417.74,355.421 415.916,357.855 415.626,360.756C415.065,366.369 414.23,374.648 413.528,378.998C413.207,380.991 413.65,383.031 414.77,384.71L415.922,386.438C416.663,387.549 417.67,388.457 418.852,389.079C418.852,389.079 428.551,394.32 442.882,394.32C465.98,394.32 481.986,380.68 481.986,364.288C481.986,357.182 480.383,351.637 474.253,346.173C476.209,344.866 477.556,342.719 477.778,340.234C478.605,331.005 480.395,321.914 480.395,321.914C480.754,320.095 480.469,318.208 479.59,316.575L478.582,314.703C477.688,313.043 476.236,311.752 474.482,311.058C474.482,311.058 466.381,307.76 454.546,307.76C430.426,307.76 415.154,321.03 415.154,338.656C415.154,344.554 416.695,349.724 420.277,354.268Z" style="fill:rgb(38,169,226);"/>
                </g>
                <g transform="matrix(1,0,0,1,0,-2)">
                    <path d="M478.802,338.007L478.802,338.08L478.802,368.464C478.802,377.201 481.669,383.572 486.669,387.914C491.275,391.915 498.084,394.32 507.394,394.32C509.984,394.32 513.986,392.9 517.99,390.134C523.972,386.001 530.795,379.129 530.795,379.129C533.014,376.885 533.706,373.546 532.562,370.605L530.546,365.421C529.772,363.431 528.235,361.833 526.277,360.982C524.318,360.132 522.101,360.099 520.119,360.892C520.119,360.892 517.475,362.027 515.231,362.048C515.114,361.349 514.962,360.269 514.962,359.392C514.962,351.635 515.094,344.807 515.314,338.816C515.314,338.816 522.427,339.021 522.427,339.021C526.489,339.138 529.994,336.192 530.576,332.17L532.16,321.226C532.521,318.729 531.683,316.207 529.899,314.423L529.179,313.703C527.622,312.146 525.491,311.299 523.289,311.364L517.804,311.523C518.157,309.228 518.407,307.969 518.407,307.969C519.086,304.573 517.503,301.125 514.484,299.428L509.876,296.836C507.104,295.276 503.671,295.507 501.132,297.424C501.132,297.424 488.315,307.117 475.083,313.255C472.571,314.421 470.84,316.803 470.508,319.554L469.5,327.906C469.138,330.902 470.493,333.846 473.004,335.521L474.732,336.673C475.943,337.48 477.35,337.941 478.802,338.007Z" style="fill:rgb(38,169,226);"/>
                </g>
                <g transform="matrix(1,0,0,1,0,-2)">
                    <path d="M527.557,354.268C525.02,355.421 523.196,357.855 522.906,360.756C522.345,366.369 521.51,374.648 520.808,378.998C520.487,380.991 520.93,383.031 522.05,384.71L523.202,386.438C523.943,387.549 524.95,388.457 526.132,389.079C526.132,389.079 535.831,394.32 550.162,394.32C573.26,394.32 589.266,380.68 589.266,364.288C589.266,357.182 587.663,351.637 581.533,346.173C583.489,344.866 584.836,342.719 585.058,340.234C585.885,331.005 587.675,321.914 587.675,321.914C588.034,320.095 587.749,318.208 586.87,316.575L585.862,314.703C584.968,313.043 583.516,311.752 581.762,311.058C581.762,311.058 573.661,307.76 561.826,307.76C537.706,307.76 522.434,321.03 522.434,338.656C522.434,344.554 523.975,349.724 527.557,354.268Z" style="fill:rgb(38,169,226);"/>
                </g>
            </g>
            <g transform="matrix(1,0,0,1,422.502,104.296)">
                <g transform="matrix(1,0,0,1,0,-2)">
                    <path d="M271.666,418.288C276.274,418.288 293.41,405.184 293.41,405.184L291.538,397.552L290.098,396.4C290.098,396.4 284.05,397.84 277.57,397.84C267.49,397.84 255.106,392.656 241.57,383.008L241.57,381.424C257.554,373.792 267.922,356.944 267.922,335.632C267.922,306.544 252.802,290.128 225.586,290.128C196.21,290.128 178.498,309.136 178.498,340.384C178.498,369.328 193.906,386.32 220.402,386.32C251.506,413.392 259.282,418.288 271.666,418.288ZM223.714,371.488C211.474,371.488 205.138,359.68 205.138,334.048C205.138,315.472 211.042,306.544 221.986,306.544C234.658,306.544 240.994,318.064 240.994,343.696C240.994,362.272 234.946,371.488 223.714,371.488Z" style="fill:rgb(255,221,24);fill-rule:nonzero;"/>
                </g>
                <g transform="matrix(1,0,0,1,0,-2)">
                    <path d="M281.314,336.784L280.306,367.456C280.306,379.552 288.658,386.176 304.354,386.176C306.37,386.176 311.986,381.568 318.61,374.8L319.906,375.52C321.058,382.72 326.242,386.32 335.458,386.32C343.378,383.872 351.586,370.624 351.586,370.624L349.282,367.312C349.282,367.312 346.402,369.184 343.378,369.184C340.498,369.184 338.626,367.024 338.626,363.712C338.626,342.688 340.498,323.392 342.946,318.928L341.218,316.192C341.218,316.192 325.666,318.928 312.13,320.656L310.69,330.448L312.706,330.448C317.458,330.592 318.466,331.6 318.466,337.072L318.466,364.576C315.154,366.592 311.698,368.608 308.53,368.608C303.346,368.608 300.754,365.296 300.754,358.096C300.754,340.96 302.482,323.104 304.642,318.496L303.058,315.76C303.058,315.76 287.794,318.784 274.114,320.656L273.106,330.592C273.106,330.592 275.122,330.304 276.85,330.304C280.162,330.304 281.314,332.032 281.314,336.784Z" style="fill:rgb(255,221,24);fill-rule:nonzero;"/>
                </g>
                <g transform="matrix(1,0,0,1,0,-2)">
                    <path d="M387.586,386.32C395.938,386.32 407.314,379.984 413.506,375.232L410.914,366.592L409.618,366.016C403.282,368.896 397.522,370.192 392.77,370.192C382.69,370.192 376.498,364.144 376.066,352.48L411.922,352.48L413.65,350.896C414.082,349.024 414.658,345.424 414.658,342.112C414.658,324.544 406.162,315.76 389.026,315.76C368.29,315.76 353.89,331.024 353.89,352.336C353.89,373.648 366.274,386.32 387.586,386.32ZM375.778,343.264C376.21,333.616 379.954,329.152 386.578,329.152C391.618,329.152 394.354,332.464 394.354,339.232C394.354,341.536 393.922,341.968 392.05,342.256L375.778,343.264Z" style="fill:rgb(255,221,24);fill-rule:nonzero;"/>
                </g>
                <g transform="matrix(1,0,0,1,0,-2)">
                    <path d="M442.882,386.32C460.738,386.32 473.986,376.96 473.986,364.288C473.986,355.072 469.522,350.176 452.242,342.4C446.194,339.664 443.746,337.216 443.746,334.048C443.746,330.88 446.77,328.72 451.234,328.72C457.282,328.72 460.162,331.744 460.306,338.368C460.306,338.944 460.162,340.096 460.162,340.096L469.81,339.52C470.674,329.872 472.546,320.368 472.546,320.368L471.538,318.496C471.538,318.496 464.626,315.76 454.546,315.76C435.826,315.76 423.154,324.976 423.154,338.656C423.154,347.296 428.194,353.344 439.858,358.384C450.658,363.28 453.106,365.152 453.106,368.608C453.106,371.632 449.794,373.792 445.186,373.792C437.698,373.792 433.234,368.896 433.09,360.688L423.586,361.552C423.01,367.312 422.146,375.808 421.426,380.272L422.578,382C422.578,382 430.786,386.32 442.882,386.32Z" style="fill:rgb(255,221,24);fill-rule:nonzero;"/>
                </g>
                <g transform="matrix(1,0,0,1,0,-2)">
                    <path d="M507.394,386.32C512.434,386.32 525.106,373.504 525.106,373.504L523.09,368.32C523.09,368.32 518.77,370.048 515.17,370.048C509.41,370.048 506.962,366.736 506.962,359.392C506.962,347.872 507.25,338.368 507.682,330.592L522.658,331.024L524.242,320.08L523.522,319.36L508.69,319.792C509.554,311.44 510.562,306.4 510.562,306.4L505.954,303.808C505.954,303.808 492.418,314.032 478.45,320.512L477.442,328.864L479.17,330.016C485.362,330.16 486.802,331.744 486.802,338.08L486.802,368.464C486.802,380.416 493.57,386.32 507.394,386.32Z" style="fill:rgb(255,221,24);fill-rule:nonzero;"/>
                </g>
                <g transform="matrix(1,0,0,1,0,-2)">
                    <path d="M550.162,386.32C568.018,386.32 581.266,376.96 581.266,364.288C581.266,355.072 576.802,350.176 559.522,342.4C553.474,339.664 551.026,337.216 551.026,334.048C551.026,330.88 554.05,328.72 558.514,328.72C564.562,328.72 567.442,331.744 567.586,338.368C567.586,338.944 567.442,340.096 567.442,340.096L577.09,339.52C577.954,329.872 579.826,320.368 579.826,320.368L578.818,318.496C578.818,318.496 571.906,315.76 561.826,315.76C543.106,315.76 530.434,324.976 530.434,338.656C530.434,347.296 535.474,353.344 547.138,358.384C557.938,363.28 560.386,365.152 560.386,368.608C560.386,371.632 557.074,373.792 552.466,373.792C544.978,373.792 540.514,368.896 540.37,360.688L530.866,361.552C530.29,367.312 529.426,375.808 528.706,380.272L529.858,382C529.858,382 538.066,386.32 550.162,386.32Z" style="fill:rgb(255,221,24);fill-rule:nonzero;"/>
                </g>
            </g>
            <g transform="matrix(1,0,0,1,422.502,104.296)">
                <g transform="matrix(1,0,0,1,0,-2)">
                    <path d="M288.228,400.848L288.895,403.567C286.052,405.664 280.809,409.424 276.383,412.001C274.479,413.109 271.785,414.198 271.562,414.288C266.117,414.274 261.678,413.125 255.173,409.063C247.904,404.525 238.346,396.635 223.028,383.303C222.3,382.669 221.367,382.32 220.402,382.32C208.444,382.32 198.938,378.613 192.471,371.513C185.888,364.284 182.498,353.683 182.498,340.384C182.498,325.938 186.458,314.276 193.947,306.271C201.352,298.356 212.159,294.128 225.586,294.128C237.898,294.128 247.53,297.69 254.028,304.693C260.618,311.795 263.922,322.287 263.922,335.632C263.922,355.224 254.541,370.798 239.847,377.814C238.456,378.479 237.57,379.883 237.57,381.424L237.57,383.008C237.57,384.301 238.195,385.515 239.248,386.265C253.629,396.516 266.861,401.84 277.57,401.84C281.71,401.84 285.686,401.292 288.228,400.848ZM223.714,375.488C236.844,375.488 244.994,365.411 244.994,343.696C244.994,330.03 243.168,320.149 239.79,313.661C235.841,306.078 229.883,302.544 221.986,302.544C209.168,302.544 201.138,312.291 201.138,334.048C201.138,347.691 202.952,357.633 206.267,364.186C210.167,371.895 216.05,375.488 223.714,375.488Z" style="fill:rgb(255,234,0);"/>
                </g>
                <g transform="matrix(1,0,0,1,0,-2)">
                    <path d="M299.885,320.441C298.132,328.001 296.754,343.299 296.754,358.096C296.754,363.935 298.386,367.759 300.908,369.982C302.824,371.671 305.337,372.608 308.53,372.608C312.333,372.608 316.57,370.413 320.546,367.993C321.738,367.267 322.466,365.972 322.466,364.576L322.466,337.072C322.466,332.916 321.646,330.557 320.361,329.108C319.289,327.899 317.731,327.049 315.289,326.667L315.648,324.228C324.256,323.065 333.15,321.616 338.062,320.79C337.676,322.233 337.309,323.967 336.986,325.953C335.571,334.63 334.626,348.74 334.626,363.712C334.626,369.606 338.253,373.184 343.378,373.184C343.916,373.184 344.45,373.142 344.973,373.067C344.014,374.308 342.882,375.676 341.639,377.001C339.569,379.208 337.217,381.378 334.81,382.312C328.489,382.173 324.667,379.956 323.856,374.888C323.662,373.676 322.922,372.62 321.849,372.024L320.553,371.304C318.978,370.428 317.012,370.715 315.751,372.002C310.795,377.067 304.725,381.57 303.901,382.174C296.18,382.11 290.516,380.398 287.275,376.653C285.265,374.331 284.319,371.252 284.306,367.531C284.306,367.518 285.312,336.916 285.312,336.916C285.313,336.872 285.314,336.828 285.314,336.784C285.314,332.345 284.176,329.745 282.546,328.259C281.334,327.156 279.735,326.449 277.56,326.324L277.777,324.177C286.337,322.925 295.018,321.355 299.885,320.441Z" style="fill:rgb(255,234,0);"/>
                </g>
                <g transform="matrix(1,0,0,1,0,-2)">
                    <path d="M410.057,348.48L376.066,348.48C374.98,348.48 373.94,348.922 373.186,349.705C372.432,350.487 372.029,351.542 372.069,352.628C372.329,359.643 374.477,364.913 377.92,368.486C381.482,372.182 386.497,374.192 392.77,374.192C397.171,374.192 402.369,373.214 408.063,371.009L408.861,373.668C403.021,377.717 394.269,382.32 387.586,382.32C378.172,382.32 370.68,379.661 365.592,374.509C360.491,369.345 357.89,361.772 357.89,352.336C357.89,333.401 370.602,319.76 389.026,319.76C396.286,319.76 401.784,321.414 405.399,325.135C409.049,328.893 410.658,334.596 410.658,342.112C410.658,344.344 410.366,346.723 410.057,348.48ZM371.782,343.085C371.731,344.219 372.165,345.321 372.974,346.117C373.783,346.912 374.893,347.327 376.025,347.256L392.297,346.248C392.418,346.241 392.539,346.228 392.658,346.21C394.956,345.856 396.201,345.043 397.04,343.983C397.769,343.062 398.354,341.688 398.354,339.232C398.354,333.659 396.667,329.911 394.091,327.71C392.17,326.068 389.674,325.152 386.578,325.152C382.854,325.152 379.809,326.246 377.419,328.319C374.235,331.08 372.106,335.859 371.782,343.085Z" style="fill:rgb(255,234,0);"/>
                </g>
                <g transform="matrix(1,0,0,1,0,-2)">
                    <path d="M468.244,321.624C467.739,324.44 466.83,329.852 466.173,335.73L464.129,335.852C463.704,332.551 462.56,330.082 460.894,328.316C458.738,326.03 455.597,324.72 451.234,324.72C444.046,324.72 439.746,328.947 439.746,334.048C439.746,338.349 442.383,342.33 450.593,346.045C450.596,346.046 450.598,346.047 450.601,346.048C465.509,352.756 469.986,356.337 469.986,364.288C469.986,369.337 467.237,373.664 462.819,376.791C457.857,380.304 450.874,382.32 442.882,382.32C434.518,382.32 428.195,380.08 425.657,379.012C426.188,375.211 426.765,369.842 427.235,365.237C427.235,365.237 429.539,365.027 429.539,365.027C430.2,368.295 431.558,370.98 433.44,373.026C436.213,376.04 440.171,377.792 445.186,377.792C452.511,377.792 457.106,373.415 457.106,368.608C457.106,365.718 456.255,363.396 452.974,360.868C450.862,359.241 447.321,357.376 441.51,354.741C441.488,354.731 441.466,354.722 441.445,354.712C431.746,350.521 427.154,345.84 427.154,338.656C427.154,326.94 438.513,319.76 454.546,319.76C460.809,319.76 465.736,320.897 468.244,321.624Z" style="fill:rgb(255,234,0);"/>
                </g>
                <g transform="matrix(1,0,0,1,0,-2)">
                    <path d="M506.11,308.643C505.728,311.01 505.197,314.686 504.711,319.381C504.593,320.527 504.975,321.669 505.759,322.514C506.543,323.359 507.654,323.824 508.807,323.79L519.709,323.473L519.21,326.923C519.21,326.923 507.797,326.594 507.797,326.594C505.631,326.531 503.808,328.206 503.688,330.37C503.253,338.206 502.962,347.783 502.962,359.392C502.962,365.353 504.563,369.214 507.2,371.458C509.137,373.107 511.735,374.048 515.17,374.048C516.512,374.048 517.938,373.849 519.264,373.577C517.08,375.603 514.017,378.293 511.169,380.261C510.193,380.935 509.251,381.52 508.391,381.929C508,382.115 507.681,382.32 507.394,382.32C501.679,382.32 497.364,381.31 494.537,378.854C491.906,376.569 490.802,373.062 490.802,368.464C490.802,368.464 490.802,338.08 490.802,338.08C490.802,333.492 489.864,330.733 488.222,328.986C486.878,327.557 484.885,326.582 481.793,326.196L482.158,323.175C492.294,318.215 501.887,311.657 506.11,308.643Z" style="fill:rgb(255,234,0);"/>
                </g>
                <g transform="matrix(1,0,0,1,0,-2)">
                    <path d="M575.524,321.624C575.019,324.44 574.11,329.852 573.453,335.73L571.409,335.852C570.984,332.551 569.84,330.082 568.174,328.316C566.018,326.03 562.877,324.72 558.514,324.72C551.326,324.72 547.026,328.947 547.026,334.048C547.026,338.349 549.663,342.33 557.873,346.045C557.876,346.046 557.878,346.047 557.881,346.048C572.789,352.756 577.266,356.337 577.266,364.288C577.266,369.337 574.517,373.664 570.099,376.791C565.137,380.304 558.154,382.32 550.162,382.32C541.798,382.32 535.475,380.08 532.937,379.012C533.468,375.211 534.045,369.842 534.515,365.237C534.515,365.237 536.819,365.027 536.819,365.027C537.48,368.295 538.838,370.98 540.72,373.026C543.493,376.04 547.451,377.792 552.466,377.792C559.791,377.792 564.386,373.415 564.386,368.608C564.386,365.718 563.535,363.396 560.254,360.868C558.142,359.241 554.601,357.376 548.79,354.741C548.768,354.731 548.746,354.722 548.725,354.712C539.026,350.521 534.434,345.84 534.434,338.656C534.434,326.94 545.793,319.76 561.826,319.76C568.089,319.76 573.016,320.897 575.524,321.624Z" style="fill:rgb(255,234,0);"/>
                </g>
            </g>
        </g>
    </g>
</svg>
